<svg width="60" height="61" viewBox="0 0 60 61" fill="none" xmlns="http://www.w3.org/2000/svg">
<path fill-rule="evenodd" clip-rule="evenodd" d="M13 1C13 0.447715 13.4477 0 14 0H15C15.5523 0 16 0.447715 16 1V5C16 5.55228 15.5523 6 15 6H14C13.4477 6 13 5.55228 13 5V1ZM44 1C44 0.447715 44.4477 0 45 0H46C46.5523 0 47 0.447715 47 1V5C47 5.55228 46.5523 6 46 6H45C44.4477 6 44 5.55228 44 5V1ZM50 4C49.4477 4 49 3.55228 49 3V2C49 1.44772 49.4477 1 50 1H52C56.4183 1 60 4.58172 60 9V53C60 57.4183 56.4183 61 52 61H8C3.58172 61 0 57.4183 0 53V9C0 4.58172 3.58172 1 8 1H10C10.5523 1 11 1.44772 11 2V3C11 3.55228 10.5523 4 10 4H8C5.23858 4 3 6.23858 3 9V53C3 55.7614 5.23858 58 8 58H52C54.7614 58 57 55.7614 57 53V9C57 6.23858 54.7614 4 52 4H50ZM19 1C18.4477 1 18 1.44772 18 2V3C18 3.55228 18.4477 4 19 4H41C41.5523 4 42 3.55228 42 3V2C42 1.44772 41.5523 1 41 1H19ZM11.18 9.635C11.09 9.725 11.045 9.84 11.045 9.98V11.27C11.045 11.41 11.09 11.525 11.18 11.615C11.27 11.705 11.385 11.75 11.525 11.75H12.815C12.955 11.75 13.07 11.705 13.16 11.615C13.25 11.525 13.295 11.41 13.295 11.27V9.98C13.295 9.84 13.25 9.725 13.16 9.635C13.07 9.545 12.955 9.5 12.815 9.5H11.525C11.385 9.5 11.27 9.545 11.18 9.635ZM13.205 12.26C13.115 12.17 13 12.125 12.86 12.125H11.48C11.34 12.125 11.225 12.17 11.135 12.26C11.045 12.35 11 12.465 11 12.605V18.77C11 18.91 11.045 19.025 11.135 19.115C11.225 19.205 11.34 19.25 11.48 19.25H12.86C13 19.25 13.115 19.205 13.205 19.115C13.295 19.025 13.34 18.91 13.34 18.77V12.605C13.34 12.465 13.295 12.35 13.205 12.26ZM28.49 12.63C28.69 12.44 28.93 12.29 29.21 12.18C29.5 12.06 29.855 12 30.275 12C30.655 12 31.01 12.065 31.34 12.195C31.68 12.315 31.975 12.505 32.225 12.765C32.485 13.015 32.69 13.34 32.84 13.74C32.99 14.13 33.065 14.595 33.065 15.135V18.78C33.065 18.92 33.02 19.035 32.93 19.125C32.84 19.215 32.725 19.26 32.585 19.26H31.205C31.065 19.26 30.95 19.215 30.86 19.125C30.77 19.035 30.725 18.92 30.725 18.78V15.435C30.725 14.965 30.63 14.66 30.44 14.52C30.25 14.38 29.95 14.31 29.54 14.31C29.35 14.31 29.18 14.32 29.03 14.34C28.89 14.35 28.765 14.395 28.655 14.475C28.555 14.545 28.475 14.65 28.415 14.79C28.365 14.93 28.34 15.13 28.34 15.39V18.78C28.34 18.92 28.295 19.035 28.205 19.125C28.115 19.215 28 19.26 27.86 19.26H26.48C26.34 19.26 26.225 19.215 26.135 19.125C26.045 19.035 26 18.92 26 18.78V12.615C26 12.475 26.045 12.36 26.135 12.27C26.225 12.18 26.34 12.135 26.48 12.135H27.92C28.05 12.135 28.15 12.175 28.22 12.255C28.3 12.335 28.34 12.44 28.34 12.57C28.34 12.71 28.39 12.73 28.49 12.63ZM49.92 13.625C50.01 13.535 50.055 13.42 50.055 13.28V12.23C50.055 12.09 50.01 11.975 49.92 11.885C49.83 11.795 49.715 11.75 49.575 11.75H48.945C48.785 11.75 48.705 11.67 48.705 11.51V9.98C48.705 9.84 48.66 9.725 48.57 9.635C48.48 9.545 48.365 9.5 48.225 9.5H46.845C46.705 9.5 46.59 9.545 46.5 9.635C46.41 9.725 46.365 9.84 46.365 9.98V11.51C46.365 11.67 46.285 11.75 46.125 11.75H45.48C45.34 11.75 45.225 11.795 45.135 11.885C45.045 11.975 45 12.09 45 12.23V13.28C45 13.42 45.045 13.535 45.135 13.625C45.225 13.715 45.34 13.76 45.48 13.76H46.125C46.285 13.76 46.365 13.84 46.365 14V16.4C46.365 16.95 46.37 17.4 46.38 17.75C46.39 18.1 46.415 18.385 46.455 18.605C46.505 18.815 46.58 18.97 46.68 19.07C46.78 19.16 46.925 19.22 47.115 19.25C47.305 19.27 47.545 19.275 47.835 19.265C48.135 19.255 48.495 19.25 48.915 19.25H49.605C49.745 19.25 49.86 19.205 49.95 19.115C50.04 19.025 50.085 18.91 50.085 18.77V17.66C50.085 17.52 50.04 17.405 49.95 17.315C49.86 17.225 49.745 17.185 49.605 17.195C49.385 17.205 49.21 17.21 49.08 17.21C48.96 17.2 48.865 17.17 48.795 17.12C48.735 17.07 48.695 16.99 48.675 16.88C48.665 16.77 48.66 16.61 48.66 16.4V14C48.66 13.84 48.74 13.76 48.9 13.76H49.575C49.715 13.76 49.83 13.715 49.92 13.625ZM14.69 35.11C14.36 35.43 13.97 35.69 13.52 35.89C13.07 36.08 12.545 36.175 11.945 36.175C11.305 36.175 10.74 36.075 10.25 35.875C9.76 35.675 9.345 35.405 9.005 35.065C8.675 34.715 8.425 34.315 8.255 33.865C8.085 33.415 8 32.94 8 32.44C8 31.94 8.09 31.47 8.27 31.03C8.45 30.58 8.7 30.185 9.02 29.845C9.34 29.505 9.725 29.24 10.175 29.05C10.635 28.85 11.14 28.75 11.69 28.75C12.26 28.75 12.775 28.845 13.235 29.035C13.695 29.215 14.085 29.47 14.405 29.8C14.735 30.13 14.985 30.52 15.155 30.97C15.325 31.42 15.41 31.915 15.41 32.455V32.755C15.4 32.895 15.345 33.01 15.245 33.1C15.155 33.19 15.04 33.235 14.9 33.235H10.22C10.33 33.625 10.53 33.88 10.82 34C11.12 34.12 11.51 34.18 11.99 34.18C12.51 34.18 12.94 34.05 13.28 33.79C13.42 33.7 13.545 33.655 13.655 33.655C13.775 33.655 13.88 33.7 13.97 33.79L14.66 34.435C14.77 34.535 14.825 34.65 14.825 34.78C14.835 34.9 14.79 35.01 14.69 35.11ZM13.085 31.57C13.255 31.57 13.315 31.495 13.265 31.345C13.165 31.055 12.995 30.85 12.755 30.73C12.515 30.6 12.205 30.535 11.825 30.535C11.485 30.535 11.19 30.6 10.94 30.73C10.7 30.85 10.515 31.055 10.385 31.345C10.355 31.415 10.355 31.47 10.385 31.51C10.415 31.55 10.47 31.57 10.55 31.57H13.085ZM31.39 29.12C31.05 29.18 30.755 29.305 30.505 29.495C30.395 29.575 30.34 29.55 30.34 29.42C30.34 29.14 30.2 29 29.92 29H28.48C28.34 29 28.225 29.045 28.135 29.135C28.045 29.225 28 29.34 28 29.48V35.645C28 35.785 28.045 35.9 28.135 35.99C28.225 36.08 28.34 36.125 28.48 36.125H29.86C30 36.125 30.115 36.08 30.205 35.99C30.295 35.9 30.34 35.785 30.34 35.645V32.6C30.34 32.38 30.395 32.18 30.505 32C30.615 31.81 30.765 31.645 30.955 31.505C31.145 31.365 31.37 31.255 31.63 31.175C31.89 31.085 32.175 31.035 32.485 31.025C32.805 31.005 32.965 30.845 32.965 30.545V29.48C32.965 29.34 32.92 29.225 32.83 29.135C32.74 29.045 32.625 29 32.485 29C32.105 29.01 31.74 29.05 31.39 29.12ZM47 26.98C47 26.84 47.045 26.725 47.135 26.635C47.225 26.545 47.34 26.5 47.48 26.5H48.86C49 26.5 49.115 26.545 49.205 26.635C49.295 26.725 49.34 26.84 49.34 26.98V35.77C49.34 35.91 49.295 36.025 49.205 36.115C49.115 36.205 49 36.25 48.86 36.25H47.48C47.34 36.25 47.225 36.205 47.135 36.115C47.045 36.025 47 35.91 47 35.77V26.98ZM14.12 52.42C14.75 51.83 15.065 51.01 15.065 49.96V46.48C15.065 46.34 15.02 46.225 14.93 46.135C14.84 46.045 14.725 46 14.585 46H13.205C13.065 46 12.95 46.045 12.86 46.135C12.77 46.225 12.725 46.34 12.725 46.48V49.96C12.725 50.22 12.7 50.43 12.65 50.59C12.61 50.74 12.54 50.855 12.44 50.935C12.35 51.015 12.23 51.07 12.08 51.1C11.93 51.12 11.745 51.13 11.525 51.13C11.315 51.13 11.135 51.12 10.985 51.1C10.835 51.07 10.71 51.015 10.61 50.935C10.52 50.855 10.45 50.74 10.4 50.59C10.36 50.43 10.34 50.22 10.34 49.96V46.48C10.34 46.34 10.295 46.225 10.205 46.135C10.115 46.045 10 46 9.86 46H8.48C8.34 46 8.225 46.045 8.135 46.135C8.045 46.225 8 46.34 8 46.48V49.96C8 51.01 8.31 51.83 8.93 52.42C9.56 53 10.425 53.29 11.525 53.29C12.625 53.29 13.49 53 14.12 52.42ZM33.35 43.5C33.49 43.5 33.605 43.545 33.695 43.635C33.785 43.725 33.83 43.84 33.83 43.98V52.785C33.83 52.925 33.785 53.04 33.695 53.13C33.605 53.22 33.49 53.265 33.35 53.265H31.865C31.615 53.265 31.49 53.14 31.49 52.89C31.49 52.76 31.445 52.735 31.355 52.815C31.125 53.005 30.86 53.15 30.56 53.25C30.27 53.35 29.935 53.4 29.555 53.4C29.075 53.4 28.615 53.305 28.175 53.115C27.745 52.925 27.37 52.665 27.05 52.335C26.73 51.995 26.475 51.6 26.285 51.15C26.095 50.7 26 50.215 26 49.695C26 49.175 26.095 48.69 26.285 48.24C26.475 47.79 26.73 47.4 27.05 47.07C27.37 46.74 27.745 46.48 28.175 46.29C28.615 46.1 29.075 46.005 29.555 46.005C29.925 46.005 30.25 46.055 30.53 46.155C30.82 46.245 31.08 46.375 31.31 46.545C31.43 46.635 31.49 46.605 31.49 46.455V43.98C31.49 43.84 31.535 43.725 31.625 43.635C31.715 43.545 31.83 43.5 31.97 43.5H33.35ZM29.93 51.285C30.16 51.285 30.37 51.245 30.56 51.165C30.75 51.075 30.91 50.96 31.04 50.82C31.18 50.67 31.29 50.5 31.37 50.31C31.45 50.12 31.49 49.915 31.49 49.695C31.49 49.485 31.45 49.285 31.37 49.095C31.29 48.895 31.18 48.725 31.04 48.585C30.91 48.445 30.75 48.335 30.56 48.255C30.37 48.165 30.16 48.12 29.93 48.12C29.71 48.12 29.505 48.165 29.315 48.255C29.125 48.335 28.96 48.445 28.82 48.585C28.68 48.725 28.57 48.895 28.49 49.095C28.41 49.285 28.37 49.485 28.37 49.695C28.37 49.915 28.41 50.12 28.49 50.31C28.57 50.5 28.68 50.67 28.82 50.82C28.96 50.96 29.125 51.075 29.315 51.165C29.505 51.245 29.71 51.285 29.93 51.285ZM49.52 53.14C49.97 52.94 50.36 52.68 50.69 52.36C50.79 52.26 50.835 52.15 50.825 52.03C50.825 51.9 50.77 51.785 50.66 51.685L49.97 51.04C49.88 50.95 49.775 50.905 49.655 50.905C49.545 50.905 49.42 50.95 49.28 51.04C48.94 51.3 48.51 51.43 47.99 51.43C47.51 51.43 47.12 51.37 46.82 51.25C46.53 51.13 46.33 50.875 46.22 50.485H50.9C51.04 50.485 51.155 50.44 51.245 50.35C51.345 50.26 51.4 50.145 51.41 50.005V49.705C51.41 49.165 51.325 48.67 51.155 48.22C50.985 47.77 50.735 47.38 50.405 47.05C50.085 46.72 49.695 46.465 49.235 46.285C48.775 46.095 48.26 46 47.69 46C47.14 46 46.635 46.1 46.175 46.3C45.725 46.49 45.34 46.755 45.02 47.095C44.7 47.435 44.45 47.83 44.27 48.28C44.09 48.72 44 49.19 44 49.69C44 50.19 44.085 50.665 44.255 51.115C44.425 51.565 44.675 51.965 45.005 52.315C45.345 52.655 45.76 52.925 46.25 53.125C46.74 53.325 47.305 53.425 47.945 53.425C48.545 53.425 49.07 53.33 49.52 53.14ZM49.265 48.595C49.315 48.745 49.255 48.82 49.085 48.82H46.55C46.47 48.82 46.415 48.8 46.385 48.76C46.355 48.72 46.355 48.665 46.385 48.595C46.515 48.305 46.7 48.1 46.94 47.98C47.19 47.85 47.485 47.785 47.825 47.785C48.205 47.785 48.515 47.85 48.755 47.98C48.995 48.1 49.165 48.305 49.265 48.595Z" fill="#5600E3"/>
</svg>
