<?xml version="1.0" encoding="utf-8"?>
<!-- Generator: Adobe Illustrator 27.5.0, SVG Export Plug-In . SVG Version: 6.00 Build 0)  -->
<svg version="1.1" xmlns="http://www.w3.org/2000/svg" xmlns:xlink="http://www.w3.org/1999/xlink" x="0px" y="0px"
	 viewBox="0 0 750 500" style="enable-background:new 0 0 750 500;" xml:space="preserve">
<g id="background">
	<rect x="0.001" style="fill:#FFFFFF;" width="750" height="500"/>
</g>
<g id="objects">
	<path style="fill:#FFF1DB;" d="M25.501,277.53c19.307-72.374,81.772-126.424,146.592-154.176
		c62.825-27.752,133.627-40.086,199.444-58.587C434.361,46.267,510.15,20.57,572.975,49.35
		c56.842,26.725,80.774,92.506,102.714,149.037c16.953,42.142,44.876,93.533,41.884,140.814
		c-4.987,57.559-60.831,98.672-107.7,118.201c-66.815,28.779-137.616,23.641-208.419,16.445
		c-66.814-7.194-130.637-4.111-197.45-1.027c-57.838,2.056-136.445-30.915-161.754-70.487C18.016,364.441,9.104,339,25.501,277.53z"
		/>
	<g>
		<polygon style="fill:#754214;" points="674.901,500 659.071,500 659.071,419.5 672.571,417.5 		"/>
		<polygon style="fill:#754214;" points="650.012,500 635.571,500 635.571,418 649.071,416 		"/>
		<polygon style="fill:#754214;" points="120.071,419.5 120.071,500 104.241,500 106.571,417.5 		"/>
		<polygon style="fill:#754214;" points="143.571,418 143.571,500 129.131,500 130.071,416 		"/>
		<path style="fill:#FAA55F;" d="M72.071,408c1.375-1,35.5-27.5,44-30.5s539.5,0,547,0s22,22,24.5,27s2,13.5,1,16.5s-597.5,0-607,0
			s-9.193-1.508-9.75-5.5C71.071,410.125,70.696,409,72.071,408z"/>
		<g>
			<path d="M460.108,411.08c-24.125,0-65.826-0.297-106.456-0.587c-51.091-0.364-103.919-0.741-118.573-0.493
				c-12.55,0.213-41.231,0.155-71.596,0.093c-40.838-0.082-83.069-0.168-89.367,0.405l-0.091-0.996
				c6.346-0.576,48.6-0.49,89.46-0.409c30.361,0.063,59.036,0.119,71.577-0.093c14.663-0.248,67.5,0.128,118.597,0.493
				c52.267,0.373,106.313,0.756,122.404,0.507c5.722-0.089,15.999-0.259,29.046-0.474c62.309-1.027,178.28-2.936,182.018-2.523
				l-0.111,0.994c-3.652-0.404-124.039,1.576-181.89,2.529c-13.048,0.215-23.325,0.384-29.047,0.474
				C472.492,411.056,467.02,411.08,460.108,411.08z"/>
		</g>
	</g>
	<g>
		<path style="fill:#A66B38;" d="M227.047,389.996c-0.23,1.247-2.975,5.32,2.191,5.662s133.666,0.157,138.333-0.334
			c4.667-0.491,2.857-6.021,0.833-7.824C350.738,388.667,227.047,389.996,227.047,389.996z"/>
		<path style="fill:#B0D2FF;" d="M243.463,284.781c-9,0.333-10.666-1.667-11.333,11c-0.667,12.667-0.333,78.333-0.333,78.333
			l-7.667,11.334c0,0-0.999,6.666,6.667,6.666s129.334,0,133,0c3.666,0,5.999-3.666,5.666-5.666s-4-12.667-4-12.667v-78.333
			c0-3.667-1.667-10.333-9-10C349.13,285.781,243.463,284.781,243.463,284.781z"/>
		<path style="fill:#2A458A;" d="M241.462,294.845c-3.308,3.308-1.999,71.604-1.666,72.937c0.333,1.333,119.332,1.333,119.666,0.333
			c0.334-1,0-71.333-0.333-72.333C358.796,294.781,242.462,293.845,241.462,294.845z"/>
		<g>
			<path d="M226.63,386.614c22.688,0.321,45.339-0.549,68.024-0.434c11.992,0.061,23.968,0.589,35.956,0.868
				c5.827,0.136,11.663,0.194,17.489,0.009c6.1-0.193,12.175-0.807,18.281-0.86c0.645-0.006,0.645-1.006,0-1
				c-5.783,0.051-11.544,0.564-17.318,0.823c-5.82,0.261-11.663,0.165-17.485,0.05c-11.983-0.239-23.954-0.794-35.94-0.884
				c-23.012-0.173-45.992,0.754-69.006,0.428C225.985,385.605,225.985,386.605,226.63,386.614L226.63,386.614z"/>
		</g>
		<g>
			<path d="M284.38,386.197c0.348,2.653,1.829,2.681,4.362,3.113c3.506,0.6,7.157,0.19,10.687,0.079
				c1.938-0.06,4.218,0.185,6.078-0.497c1.08-0.397,0.939-1.234,1.216-2.155c0.155-0.515-0.474-0.787-0.835-0.486
				c-0.037,0.031-0.074,0.061-0.111,0.093c-0.496,0.413,0.215,1.117,0.707,0.707c0.037-0.031,0.074-0.062,0.111-0.093
				c-0.279-0.162-0.557-0.324-0.836-0.486c-0.246,0.819-0.051,1.359-1.053,1.623c-1.41,0.371-3.061,0.235-4.505,0.273
				c-2.795,0.073-14.306,1.759-14.821-2.171C285.297,385.567,284.296,385.56,284.38,386.197L284.38,386.197z"/>
		</g>
		<g>
			<path d="M232.664,374.43c2.104,0.583,4.218,0.488,6.38,0.368c2.606-0.145,5.138,0.111,7.737,0.28
				c5.792,0.376,11.623,0.253,17.418,0.032c11.909-0.454,23.839-0.784,35.759-0.793c5.744-0.004,11.472,0.436,17.214,0.539
				c6.047,0.108,12.097,0.018,18.145,0.048c5.735,0.029,11.484-0.17,17.216-0.046c2.773,0.06,5.553,0.024,8.326,0.1
				c1.422,0.038,3.018,0.373,4.356-0.246c0.585-0.271,0.076-1.133-0.505-0.863c-1.41,0.653-3.724,0.099-5.247,0.099
				c-2.953,0-5.897-0.094-8.849-0.117c-5.733-0.047-11.474,0.085-17.209,0.066c-5.411-0.017-10.822,0.039-16.233-0.04
				c-5.743-0.084-11.469-0.518-17.214-0.539c-11.259-0.042-22.566,0.23-33.814,0.713c-5.816,0.249-11.634,0.373-17.454,0.146
				c-2.677-0.104-5.35-0.498-8.03-0.455c-2.612,0.042-5.164,0.456-7.73-0.257C232.307,373.292,232.043,374.257,232.664,374.43
				L232.664,374.43z"/>
		</g>
		<path style="fill:#5C73AB;" d="M239.797,377.113c-1.5,1.834-4.334,3.834-5.167,6.167l0,0l0,0
			c2.833,0.833,27.038,0.042,30.875,0.042c11.375,0,56.334,0,64.5,0c9,0,16.125,0.125,25.292,0.125c0.833,0,1.666,0,2.666-0.167
			c-0.666-1.5-0.833-3.167-1.333-4.667c-0.667-1.833-1.833-1.833-3.667-1.666c-3.5,0-7,0.166-10.5,0.166
			c-8.333,0.334-16.833-0.5-25.333-0.5c-18,0-36.25,0.126-54.25-0.041c-8,0-17.625-0.125-23.25,0.541"/>
	</g>
	<g>
		<g>
			<path d="M148.675,213.134c2.593-2.008,5.56-3.351,8.292-5.136c2.604-1.701,5.08-3.659,7.987-4.829
				c0.59-0.237,0.333-1.205-0.266-0.964c-2.987,1.202-5.568,3.149-8.227,4.93c-2.784,1.865-5.831,3.23-8.494,5.292
				C147.458,212.821,148.172,213.523,148.675,213.134L148.675,213.134z"/>
		</g>
		<g>
			<path d="M150.925,219.443c2.378-2.03,5.242-3.221,8.002-4.624c2.907-1.478,5.434-3.745,8.527-4.837
				c0.278-0.098,0.396-0.331,0.349-0.615c-0.01-0.063-0.02-0.126-0.031-0.189c-0.066-0.402-0.581-0.441-0.836-0.221
				c-0.073,0.063-0.146,0.126-0.219,0.189c-0.489,0.422,0.222,1.126,0.707,0.707c0.073-0.063,0.146-0.126,0.219-0.189
				c-0.278-0.074-0.557-0.147-0.836-0.221c0.01,0.063,0.021,0.126,0.031,0.189c0.116-0.205,0.232-0.41,0.349-0.615
				c-2.959,1.045-5.376,3.123-8.12,4.592c-3.027,1.621-6.212,2.874-8.851,5.126C149.727,219.156,150.438,219.859,150.925,219.443
				L150.925,219.443z"/>
		</g>
		<path style="fill:#B0D2FF;" d="M170.071,216.061c-8-11.86-15-25.235-3.5-31.039c11.5-5.804,14-1.767,25,17.917
			c8.5-0.253,20.25,3.785,29.25,18.674c1.5,1.262-1.5,4.542-10.5,10.346s-28,16.654-33.75,19.179c-5.75,2.523-6.75,2.271-8.75-2.524
			C165.821,243.819,157.571,228.426,170.071,216.061z"/>
		<g>
			<path d="M92.21,273.236c1.44-2.538,3.473-4.554,5.478-6.642c2.07-2.155,3.956-4.503,5.891-6.78
				c4.272-5.029,8.474-10.087,12.94-14.949c4.226-4.601,8.55-9.109,12.813-13.675c3.817-4.089,8.063-7.895,11.411-12.391
				c0.386-0.518-0.483-1.016-0.863-0.505c-3.472,4.663-7.927,8.624-11.887,12.867c-4.48,4.8-9.023,9.542-13.454,14.387
				c-4.238,4.635-8.203,9.482-12.267,14.267c-1.91,2.249-3.8,4.522-5.845,6.65c-1.883,1.96-3.73,3.889-5.079,6.267
				C91.028,273.294,91.892,273.798,92.21,273.236L92.21,273.236z"/>
		</g>
		<g>
			<path d="M97.067,277.603c4.842-3.489,8.723-8.063,12.768-12.405c4.503-4.835,9.157-9.522,13.685-14.333
				c8.008-8.51,15.188-17.734,22.906-26.501c0.424-0.482-0.28-1.192-0.707-0.707c-7.509,8.529-14.522,17.474-22.256,25.806
				c-4.278,4.609-8.738,9.047-13.037,13.639c-4.412,4.713-8.594,9.842-13.863,13.639C96.044,277.112,96.543,277.98,97.067,277.603
				L97.067,277.603z"/>
		</g>
		<g>
			<path d="M85.839,282.057c2.72,6.919,7.621,13.038,11.519,19.329c4.261,6.877,8.23,13.902,12.67,20.671
				c4.406,6.717,8.93,13.354,12.988,20.291c3.401,5.813,5.841,12.594,10.701,17.399c0.396,0.392,1.104-0.122,0.785-0.605
				c-0.167-0.253-0.333-0.505-0.5-0.757c-0.354-0.536-1.22-0.035-0.863,0.504c0.167,0.253,0.333,0.505,0.5,0.757
				c0.262-0.201,0.523-0.403,0.785-0.605c-4.772-4.72-7.232-11.463-10.544-17.197c-3.862-6.686-8.227-13.072-12.478-19.515
				c-4.283-6.491-8.157-13.193-12.192-19.835c-4.108-6.763-9.501-13.31-12.408-20.702C86.57,281.198,85.603,281.456,85.839,282.057
				L85.839,282.057z"/>
		</g>
		<g>
			<path d="M96.334,283.103c1.029,2.93,2.707,5.498,4.454,8.046c2.151,3.138,4.085,6.37,6.043,9.633
				c4.275,7.125,8.33,14.374,12.592,21.506c4.015,6.718,7.835,13.543,12.057,20.135c2.177,3.399,4.321,6.817,6.497,10.217
				c1.936,3.026,4.42,6.226,5.618,9.625c0.245-0.188,0.489-0.376,0.734-0.564c-0.165-0.091-0.33-0.181-0.494-0.271
				c-0.566-0.311-1.07,0.553-0.505,0.863c0.165,0.091,0.33,0.181,0.494,0.272c0.36,0.198,0.888-0.131,0.734-0.565
				c-0.964-2.736-2.789-4.994-4.256-7.465c-2.057-3.466-4.26-6.868-6.441-10.256c-4.413-6.854-8.435-13.91-12.62-20.901
				c-4.083-6.821-7.949-13.768-12.038-20.586c-2.017-3.364-3.93-6.814-6.121-10.068c-2.138-3.176-4.502-6.234-5.785-9.885
				C97.085,282.233,96.119,282.493,96.334,283.103L96.334,283.103z"/>
		</g>
		<path style="fill:#B0D2FF;" d="M115.321,372.264c10,0,39,0,44.5,0s7.25,2.018,9,5.551c1.75,3.533,3.72,4.364-4.75,6.561
			c-20.5,5.317-47.311,1.288-47.311,1.288s-11.438-1.554-10.188-5.073C108.439,375.331,109.071,372.264,115.321,372.264z"/>
		<path style="fill:#B0D2FF;" d="M124.271,375.039c1.25-4.037,3.25-13.374,4.25-15.646c1-2.271,15.375-2.649,16.25-0.378
			c1.75,5.047,6,16.528,6,16.528L124.271,375.039z"/>
		<g>
			<path d="M170.074,217.502c3.237-2.494,6.578-4.833,10-7.066c2.938-1.917,5.696-4.531,9.13-5.501
				c0.62-0.175,0.356-1.14-0.266-0.964c-3.33,0.94-5.899,3.327-8.727,5.206c-3.618,2.403-7.2,4.809-10.643,7.462
				C169.066,217.026,169.563,217.895,170.074,217.502L170.074,217.502z"/>
		</g>
		<g>
			<path d="M173.675,249.977c2.992-2.743,6.527-4.722,10.045-6.701c3.508-1.974,6.813-4.169,10.16-6.401
				c3.61-2.41,7.294-4.707,11.064-6.857c3.329-1.898,7.009-3.03,9.981-5.527c0.495-0.415-0.217-1.119-0.707-0.707
				c-3.105,2.608-7.101,3.843-10.589,5.833c-3.767,2.148-7.415,4.501-11.021,6.907c-3.325,2.219-6.636,4.338-10.122,6.3
				c-3.351,1.885-6.671,3.837-9.517,6.447C172.491,249.706,173.201,250.412,173.675,249.977L173.675,249.977z"/>
		</g>
		<g>
			<path d="M111.819,375.676c2.234,1.614,5.905,1.626,8.53,1.884c4.856,0.478,9.756,0.589,14.633,0.611
				c9.75,0.046,19.874-0.356,29.305-3.027c0.62-0.176,0.356-1.141-0.266-0.965c-9.162,2.596-18.948,2.982-28.421,2.993
				c-4.494,0.005-8.992-0.129-13.474-0.46c-2.903-0.215-7.316-0.103-9.803-1.899C111.8,374.434,111.302,375.302,111.819,375.676
				L111.819,375.676z"/>
		</g>
		<path style="fill:#B0D2FF;" d="M140.821,212.78c5.742-1.545,11.5-3.027,14-3.28c2.5-0.252,4.5,1.262,2.5,6.057
			c-2,4.795-4,9.084-5.5,11.355s-3.75,4.29-7,0c-3.25-4.29-5-6.561-6.25-8.327C137.321,216.818,137.071,213.79,140.821,212.78z"/>
		<path style="fill:#B0D2FF;" d="M86.321,269.054c-4.25,2.776-7.25,11.355-1,16.15c6.25,4.794,11.5,4.29,13.75,0.757
			s4.5-7.822,0.5-12.112C95.571,269.559,90.571,266.278,86.321,269.054z"/>
		<g>
			<path d="M125.652,373.432c3.273,2.168,7.158,1.685,10.908,1.792c3.557,0.101,7.985,0.161,11.264-1.459
				c0.578-0.285,0.071-1.148-0.505-0.863c-2.855,1.411-6.736,1.392-9.833,1.346c-3.749-0.056-8.067,0.482-11.329-1.679
				C125.617,372.211,125.117,373.077,125.652,373.432L125.652,373.432z"/>
		</g>
	</g>
	<g>
		<path style="fill:#2A458A;" d="M461.273,312.258c-1.25,3-3.25,10.5-3.25,10.5c-3.25,3.25-8.75,8-8.75,8
			c-6.5-1.75-28.5-9.75-46.375-1.625s-18.125,15.125-13.875,29.375s17.5,22.75,29,25.75s53.25,11.75,55.5,14s6,6,8,6.5s32,1,53-5.25
			s58.5-8.75,70.25-20s5.25-22.5-1.25-35c-2.5-3.25-16.75-6.75-25-9s-16.75-10.75-18.25-12.75c-2.5-11.5-4-16-4-16
			S466.023,310.008,461.273,312.258z"/>
		<g>
			<path d="M498.458,318.125c-0.776,3.775,0.491,7.599,1.834,11.099c0.228,0.596,1.196,0.337,0.965-0.266
				c-1.27-3.309-2.569-6.991-1.834-10.567C499.552,317.762,498.588,317.493,498.458,318.125L498.458,318.125z"/>
		</g>
		<g>
			<path d="M505.74,326.442c-1.787-0.562-2.476-3.895-0.03-3.78c1.284,0.061,2.688,1.067,2.809,2.399
				c0.127,1.409-1.236,1.941-2.411,1.863c-0.645-0.042-0.64,0.958,0,1c1.751,0.115,3.314-0.834,3.414-2.692
				c0.104-1.926-1.798-3.225-3.483-3.53c-1.476-0.267-2.776,0.668-2.92,2.172c-0.154,1.607,0.827,3.053,2.356,3.533
				C506.092,327.601,506.353,326.635,505.74,326.442L505.74,326.442z"/>
		</g>
		<path style="fill:#A66B38;" d="M461.608,381.424c-5.001,0.834-16.001,1.835-21.834,1.501c-5.833-0.334-10.001-4.335-21.167,1.499
			c-11.166,5.834-11.666,8.001-10.333,11.334c-2,2.333-0.165,7.666,2.334,9.666c2.499,2,10.166-1.499,18.166-1.666
			c8-0.167,20.833-0.168,30-2.834c9.167-2.666,16.5-1.166,16.5-1.166C471.274,394.424,461.608,381.424,461.608,381.424z"/>
		<path style="fill:#754214;" d="M473.846,81.242c-4.166-1.666-8.264-1.698-10.9,1.055c-2.946,3.076-0.671,5.629-3.171,7.962
			s-4.666,1.499-4.833,4.833c-0.167,3.334,4.166,5.334-1.834,7.167s-8.166,4.001-7.833,11.167c0.333,7.166-6.667,8-7.834,12.5
			c-2.021,7.792-0.333,10.832,3.834,12.666c-9,4-7.334,13.5-5,16.334c4.518,5.485,8.5,4.666,8.5,4.666
			c0.167,6.834,6.501,11.834,14.167,6.667c4.5,6,10.833,6.499,14.333,1.833c2.5,4.334,8.833,6.002,14.5,2.834
			c15.167,2.333,28-1.334,28-1.334c6.333,3.167,11.499,2.167,12.833-0.833c3,3.833,9.834,3.334,11.334,1.167
			c4.833,3.833,12.834-0.834,13.5-4.334c9.833,3.834,20.834-3.332,16-11.166c-1.334-2.667,4.166-4,4.166-10s-5-7.501-5.333-10.334
			c-0.333-2.833,3.667-2.834,3-7.5c-0.667-4.666-8.667-5.502-10.5-8.834c-1.833-3.332,2.001-4.165,0.667-6.832
			c-1.334-2.667-6.001-0.666-6.834-5c-0.833-4.334,1.834-7.667-3.333-12.167c-5.167-4.5-9.167-1.334-11.5-4.667
			c-2.333-3.333,0.167-7.334-5.333-11s-9-1-11.667-1.833c-2.667-0.833-2.666-8-10.333-8.5c-7.667-0.5-6.501,4.167-12.334,5.5
			s-10.666-7.167-19.333-2.5S474.179,78.075,473.846,81.242z"/>
		<g>
			<path d="M533.279,130.102c0.25,1.582,1.149,2.202,2.602,2.671c1.402,0.454,2.56,0.849,3.4,2.178
				c0.683,1.081,0.656,2.722,0.946,3.943c0.433,1.821,1.812,2.79,3.505,3.328c1.801,0.572,3.084,0.782,3.839,2.768
				c0.419,1.101,0.777,2.115,1.396,3.129c2.029,3.321,6.604,4.959,10.255,3.629c2.881-1.05,4.338-6.455,2.637-8.864
				c-0.369-0.522-1.236-0.023-0.863,0.505c1.173,1.661,0.299,4.43-0.57,6.028c-1.421,2.613-5.343,1.935-7.541,0.924
				c-2.07-0.953-3.399-2.925-4.141-5.003c-0.352-0.983-0.661-2.139-1.533-2.809c-1.322-1.017-2.934-1.051-4.422-1.734
				c-2.01-0.922-1.803-3.909-2.354-5.686c-0.358-1.156-1.229-1.884-2.193-2.532c-1.42-0.954-3.647-0.523-3.997-2.739
				C534.144,129.201,533.18,129.472,533.279,130.102L533.279,130.102z"/>
		</g>
		<g>
			<path d="M533.432,133.906c1.927,2.415,3.573,5.037,2.492,8.186c-0.446,1.301-1.352,3.048-0.719,4.447
				c0.248,0.55,0.574,1.058,1.089,1.401c1.526,1.02,2.259,1.79,1.145,3.495c-0.986,1.509-1.662,3.666-0.672,5.366
				c0.975,1.673,2.396,2.632,4.219,3.233c0.778,0.257,1.588,0.111,2.36-0.052c1.083-0.23,1.791-0.711,3.022-0.536
				c0.625,0.089,1.438,0.704,2.012,1.003c2.346,1.226,4.866-1.616,3.503-3.816c-0.339-0.547-1.204-0.045-0.863,0.505
				c1.267,2.045-1.381,2.842-2.663,2.172c-0.582-0.304-1.107-0.599-1.723-0.828c-1.685-0.629-3.633,0.87-5.383,0.589
				c-1.706-0.275-3.239-1.766-3.817-3.318c-0.607-1.626,0.457-3.183,1.283-4.448c0.352-0.54,1.048-1.718,0.658-2.416
				c-0.685-1.228-2.26-1.264-3.113-2.427c-0.934-1.272,0.616-3.995,1.006-5.277c0.858-2.827-1.502-5.947-3.129-7.986
				C533.736,132.695,533.034,133.408,533.432,133.906L533.432,133.906z"/>
		</g>
		<g>
			<path d="M463.01,162.844c1.352,2.369,3.919,2.882,6.408,2.045c1.116-0.376,2.141-1.314,2.843-2.227
				c1.613-2.096,2.348-4.083,5.431-4.094c2.544-0.009,5.603-3.246,6.515-5.391c0.902-2.122-0.209-5.197-1.911-6.606
				c-0.493-0.408-1.204,0.295-0.707,0.707c2.395,1.982,2.335,5.273,0.398,7.469c-0.767,0.869-1.75,1.548-2.718,2.168
				c-1.31,0.84-2.71,0.18-3.96,0.694c-1.5,0.617-1.982,1.587-2.793,2.945c-1.718,2.878-6.283,5.92-8.643,1.785
				C463.554,161.78,462.689,162.283,463.01,162.844L463.01,162.844z"/>
		</g>
		<path style="fill:#B0D2FF;" d="M476.773,177.425c1.5-2.667,3.859-8.542,9.242-9.292c5.383-0.75,29.805-1.5,34.969-0.75
			c5.164,0.75,7.479,8.69,9.746,12.563C520.023,183.758,480.023,182.842,476.773,177.425z"/>
		<path style="fill:#B0D2FF;" d="M489.273,173.133c-5.5,1.125-20.5,6.625-32.375,12.25s-23.375,13.625-24.375,33.125
			s0.085,43.582-1.916,51.916c-3.001,0.167-4.002,2.167-1.168,4.667c-6.333,1.167-6.749,3-2.749,6.334
			c-5.667,9.5-12.5,20.833-10.667,23.166c4.5,6.833,14.751,11.667,18.917,14.667c4.166,3,7.499,3.333,11.666-2.667
			c4.167-6,13.501-19.333,14.834-25.5c-3.334,11-3.001,12.499-1.501,15.333c1.5,2.834,1.334,5.834,1.334,5.834
			s15.999,8.166,40.833,6.333c24.834-1.833,53.334-9.333,53.334-9.333s13.833,18.25,19.333,16.375
			c9.081-3.096,23.5-5.542,19.5-14.375c-1.25-1.875-4.333-7.166-6-10.333s-9.333-19.666-11.333-23
			c3.5-1.667,3.666-3.836,0.333-3.668c2.667-15.666,5.667-37-0.5-55.166s-8.001-22.166-16.834-27.833
			c-8.833-5.667-32-19.999-44.333-19.166C503.273,172.925,489.273,173.133,489.273,173.133z"/>
		<path style="fill:#A66B38;" d="M571.148,319.383c2.75,5.5,8.5,7.125,11.375,12.375s5.375,11,7.75,11.625
			c1.75,0,4.125-2.25,4.125-2.25c1,2.125,4.375,1.75,5.75,0.25c0.625,2.75,3.75,5.875,8.375,0c5.5,2.625,10,1.125,11.25-3.75
			s-0.875-12.625-7.125-5c-1.125-2,2.354-4.494,0.125-8.5c-3.083-5.541-7.583-7.041-9.083-4.374
			c-3.125,0.125-3.666,2.083-3.416,4.833c-0.334,0-0.626-0.209-0.626-0.209c-3.5-4.875-10.625-13-10.625-13
			C585.523,311.133,579.523,311.758,571.148,319.383z"/>
		<path style="fill:#A66B38;" d="M526.75,139.269c4.334,2.166,8.357-1.678,8.19-12.844s-6.834-3.166-6.834-3.166L526.75,139.269z"/>
		<path style="fill:#A66B38;" d="M486.446,177.865c2.876,10.674,17.052,37.002,17.495,43.059
			c5.275-14.227,16.523-33.201,17.728-41.934c-3.279-2.798-4.387-8.205-3.729-20.565c-1.167-0.666-29.334,2.334-29.334,2.334
			C488.883,165.59,490.172,172.928,486.446,177.865z"/>
		<path style="fill:#A66B38;" d="M473.44,113.425c-1.334,16.5,2.499,36.002,10.166,45.001c7.667,8.999,28.668,15.499,39.334-4.001
			c5.333-10.666,6.173-30.932,5.666-42.166C527.606,90.092,478.607,72.591,473.44,113.425z"/>
		<path style="fill:#754214;" d="M485.023,100.008c0.25,5.25,5.75,4.625,9.375,4.375s7.335-0.335,7.085,5.54
			s0.266,10.92,6.016,12.92c5.75,2,9.362-2.626,12.987-0.501s1.037,6.916,8.037,6.291s5.125-2.375,8.625-0.75
			c0.25-24.5-24.25-54-51-39s-18.375,22-12.5,47.75c-0.25-2.875,3.75-4.75,3.125-8.875s-3.943-2.145-2.943-6.645
			s4.693-5.605,5.193-9.98S475.857,104.342,485.023,100.008z"/>
		<g>
			<path d="M484.31,131.69c0.696,2.028,2.239,3.443,4.449,3.471c2.455,0.031,4.183-2.043,4.978-4.137
				c0.459-1.208-1.475-1.725-1.928-0.531c-0.986,2.593-4.444,3.945-5.572,0.666C485.821,129.947,483.889,130.468,484.31,131.69
				L484.31,131.69z"/>
		</g>
		<g>
			<path d="M481.96,119.445c2.49-2.698,5.978-4.258,9.646-4.354c0.644-0.017,0.646-1.017,0-1c-3.921,0.102-7.688,1.758-10.353,4.646
				C480.816,119.211,481.521,119.92,481.96,119.445L481.96,119.445z"/>
		</g>
		<g>
			<path d="M517.477,131.159c-1.128,3.279-4.586,1.927-5.572-0.666c-0.453-1.193-2.387-0.676-1.928,0.531
				c0.777,2.048,2.353,3.96,4.698,4.118c2.313,0.156,4.007-1.35,4.729-3.452C519.825,130.468,517.893,129.947,517.477,131.159
				L517.477,131.159z"/>
		</g>
		<g>
			<path d="M522.461,118.738c-2.666-2.889-6.433-4.545-10.354-4.646c-0.645-0.017-0.643,0.983,0,1
				c3.668,0.095,7.156,1.655,9.647,4.354C522.192,119.92,522.897,119.211,522.461,118.738L522.461,118.738z"/>
		</g>
		<g>
			<path d="M495.106,137.759c-0.152,1.162,0.418,2.293,1.712,2.433c1.307,0.141,2.38-0.232,3.456,0.796
				c0.58,0.554,1.18,0.607,1.942,0.595c0.435-0.006,0.923-0.359,1.231-0.629c1.101-0.963,2.059-1.136,3.45-1.317
				c1.402-0.182,2.307-0.754,2.375-2.211c0.03-0.645-0.97-0.642-1,0c-0.072,1.533-2.347,1.316-3.301,1.329
				c-0.706,0.009-1.233,0.702-1.735,1.069c-2.319,1.694-2.343-0.38-3.846-0.653c-0.978-0.177-3.565,0.726-3.285-1.411
				C496.19,137.121,495.188,137.129,495.106,137.759L495.106,137.759z"/>
		</g>
		<g>
			<path d="M495.021,147.19c5.215,3.674,12.738,1.831,17.504-1.667c0.515-0.377,0.017-1.246-0.504-0.863
				c-4.5,3.302-11.55,5.151-16.496,1.667C494.997,145.955,494.498,146.822,495.021,147.19L495.021,147.19z"/>
		</g>
		<g>
			<path d="M484.273,95.758c-0.385,3.473,0.095,6.848,3.27,8.789c3.419,2.089,6.826-0.498,10.363-0.009
				c3.257,0.45,3.104,4.812,3.074,7.233c-0.026,2.114,0.196,4.027,0.938,6.012c1.254,3.351,3.983,5.506,7.499,5.935
				c3.951,0.481,9.647-3.626,12.355,0.642c1.697,2.674,2.624,4.918,6.181,5.03c2.674,0.084,4.888-1.507,7.653-0.953
				c2.074,0.417,3.574,2.186,5.512,2.936c2.918,1.13,5.793,0.347,6.762-2.857c0.187-0.619-0.778-0.881-0.965-0.266
				c-1.828,6.048-7.279,0.431-10.338-0.551c-1.423-0.456-2.722-0.513-4.193-0.277c-2.381,0.381-4.38,1.585-6.766,0.436
				c-2.643-1.274-2.461-5.231-5.358-6.174c-3.054-0.993-6.219,0.754-9.263,1.039c-5.563,0.521-8.685-4.356-9.007-9.314
				c-0.204-3.141,0.546-6.663-2.058-9.028c-1.792-1.629-4.8-0.784-6.834-0.258c-1.983,0.513-3.819,0.314-5.577-0.76
				c-2.562-1.566-2.536-5.005-2.249-7.604C485.345,95.117,484.344,95.124,484.273,95.758L484.273,95.758z"/>
		</g>
		<g>
			<path style="fill:#FAA55F;" d="M471.708,145.892c0.597,3.29,3.262,8.476,7.401,6.716c0.592-0.251,0.082-1.113-0.504-0.863
				c-3.433,1.459-5.479-3.617-5.933-6.118C472.558,144.992,471.594,145.261,471.708,145.892L471.708,145.892z"/>
		</g>
		<g>
			<path d="M484.391,99.776c-2.279,0.796-4.239,2.012-5.674,3.979c-1.848,2.535-0.599,6.3-1.158,9.152
				c-0.551,2.808-3.286,4.663-4.109,7.427c-0.874,2.935,1.629,5.504,2.563,8.05c1.06,2.889-2.208,5.422-2.603,8.197
				c-0.143,1.001,0.194,2.063,0.449,3.015c0.69,2.579-0.224,3.981-2.076,5.705c-1.879,1.748-1.809,3.301-1.612,5.718
				c0.181,2.225-0.964,3.96-3.028,4.755c-2.557,0.985-5.295-1.111-7.014-2.747c-0.467-0.444-1.175,0.262-0.707,0.707
				c1.985,1.889,4.27,3.376,7.102,3.194c2.252-0.145,3.899-1.928,4.483-3.966c0.243-0.846,0.224-1.849,0.096-2.706
				c-0.365-2.443,0.607-3.506,2.259-5.066c2.109-1.992,1.988-3.897,1.285-6.522c-0.967-3.612,2.167-5.097,2.504-8.287
				c0.438-4.144-4.127-6.765-2.281-11.048c1.24-2.879,3.521-4.366,3.88-7.666c0.225-2.062-0.189-4.051,0.268-6.113
				c0.561-2.528,3.42-4.04,5.641-4.816C485.261,100.529,485.001,99.563,484.391,99.776L484.391,99.776z"/>
		</g>
		<g>
			<path d="M527.666,129.391c0.227,0.809-0.018,1.723-0.018,2.553c0,0.993-0.011,1.984-0.047,2.976c-0.023,0.645,0.977,0.643,1,0
				c0.041-1.137,0.047-2.274,0.047-3.412c0-0.815,0.206-1.579-0.018-2.383C528.457,128.505,527.492,128.769,527.666,129.391
				L527.666,129.391z"/>
		</g>
		<g>
			<path d="M485.023,173.758c0.025,3.648,1.726,7.264,2.979,10.633c1.557,4.185,3.282,8.312,5.183,12.351
				c1.906,4.052,4.006,8.012,5.987,12.027c1.993,4.04,3.191,7.95,4.286,12.288c0.158,0.625,1.122,0.36,0.965-0.266
				c-0.862-3.414-1.632-6.708-3.129-9.914c-1.899-4.066-4.003-8.037-5.995-12.058c-2.094-4.226-3.954-8.551-5.667-12.944
				c-1.452-3.725-3.581-8.066-3.609-12.117C486.019,173.113,485.019,173.113,485.023,173.758L485.023,173.758z"/>
		</g>
		<g>
			<path d="M484.148,185.258c0.462,5.196,0.398,11.747,3.576,16.164c1.372,1.906,3.685,2.773,5.719,3.752
				c2.986,1.438,5.959,4.049,7.398,7.087c0.276,0.583,1.138,0.075,0.863-0.505c-2.174-4.588-6.53-6.748-10.805-8.929
				c-5.628-2.873-5.279-12.247-5.752-17.568C485.092,184.621,484.092,184.615,484.148,185.258L484.148,185.258z"/>
		</g>
		<g>
			<path d="M466.502,207.236c2.838-2.666,6.387-3.399,9.878-4.849c3.271-1.359,6.277-3.795,9.651-4.773
				c0.618-0.179,0.355-1.144-0.266-0.964c-1.618,0.468-2.956,1.27-4.369,2.175c-1.861,1.192-4.047,2.083-6.079,2.928
				c-3.448,1.432-6.718,2.141-9.522,4.775C465.324,206.972,466.032,207.677,466.502,207.236L466.502,207.236z"/>
		</g>
		<g>
			<path d="M505.006,310.125c-1.036-2.522-1.11-5.179-1.233-7.867c-0.113-2.488-0.817-4.893-1.361-7.309
				c-1.429-6.34-1.614-12.941-1.643-19.414c-0.028-6.506-0.65-12.999-1.103-19.484c-0.453-6.525-1.108-13.45,0.174-19.909
				c1.127-5.679,3.601-11.148,5.361-16.656c1.725-5.399,3.805-10.39,7.676-14.624c1.715-1.876,3.051-4.017,4.679-5.964
				c1.285-1.538,3.218-3.589,5.521-2.439c0.869,0.434,1.605,1.278,2.564,1.532c2.476,0.654,5.193,0.265,7.746,0.556
				c3.375,0.384,6.241,1.823,9.135,3.519c0.557,0.327,1.06-0.538,0.504-0.863c-2.481-1.455-4.938-2.726-7.75-3.393
				c-1.179-0.279-2.422-0.325-3.621-0.454c-2.054-0.222-4.314,0.372-6.245-0.583c-1.513-0.747-3.157-2.546-5.026-1.535
				c-2.083,1.127-3.634,2.976-5.023,4.854c-3.288,4.443-7,8.201-9.102,13.421c-2.25,5.591-3.974,11.458-5.916,17.163
				c-4.429,13.013-1.216,27.528-0.667,40.936c0.275,6.72,0.162,13.36,1.134,20.039c0.478,3.286,1.511,6.465,1.902,9.76
				c0.368,3.086,0.121,6.04,1.33,8.981C504.283,310.978,505.251,310.722,505.006,310.125L505.006,310.125z"/>
		</g>
		<g>
			<path d="M520.898,174.008c0.482,4.026,0.439,8.155-1.932,11.623c-0.365,0.534,0.502,1.034,0.863,0.505
				c2.463-3.604,2.57-7.927,2.068-12.128C521.823,173.376,520.822,173.368,520.898,174.008L520.898,174.008z"/>
		</g>
		<g>
			<path d="M522.916,184.125c-0.532,1.836-0.637,3.721-0.817,5.616c-0.183,1.918-1.108,3.688-0.95,5.642
				c0.052,0.638,1.052,0.643,1,0c-0.143-1.757,0.675-3.292,0.875-5c0.236-2.012,0.289-4.035,0.857-5.992
				C524.06,183.77,523.096,183.507,522.916,184.125L522.916,184.125z"/>
		</g>
		<g>
			<path d="M441.842,194.51c0.951,2.044,2.108,4.003,3.141,6.008c1.242,2.413,2.021,5.268,2.944,7.823
				c0.845,2.338,1.53,4.73,2.398,7.061c0.992,2.664,2.109,5.256,2.448,8.105c0.075,0.632,1.076,0.64,1,0
				c-0.622-5.235-3.176-10.465-4.883-15.432c-0.823-2.396-1.716-4.813-2.649-7.169c-0.954-2.409-2.445-4.559-3.536-6.901
				C442.434,193.421,441.571,193.93,441.842,194.51L441.842,194.51z"/>
		</g>
		<g>
			<path d="M428.906,271.24c3.11-0.832,6.042,0.117,8.923,1.256c2.836,1.12,5.743,2.378,8.091,4.365
				c0.489,0.414,1.2-0.29,0.707-0.707c-2.313-1.958-5.072-3.196-7.85-4.348c-3.253-1.348-6.619-2.472-10.137-1.531
				C428.019,270.442,428.282,271.406,428.906,271.24L428.906,271.24z"/>
		</g>
		<g>
			<path d="M425.156,277.24c4.12-1.075,8.014-0.804,12.169-0.228c2.481,0.344,6.531,0.339,8.345,2.349
				c0.433,0.479,1.138-0.229,0.707-0.707c-1.817-2.013-5.356-2.153-7.85-2.482c-4.635-0.611-9.03-1.098-13.637,0.103
				C424.267,276.439,424.531,277.402,425.156,277.24L425.156,277.24z"/>
		</g>
		<g>
			<path d="M434.023,279.508c3.917,0,7.833,0,11.75,0c0.645,0,0.645-1,0-1c-3.917,0-7.833,0-11.75,0
				C433.379,278.508,433.379,279.508,434.023,279.508L434.023,279.508z"/>
		</g>
		<g>
			<path d="M419.15,296.315c5.497-3.154,13.015-3.235,18.578-0.27c2.607,1.391,5.367,3.366,7.41,5.501
				c1.598,1.668,3.926,4.16,4.135,6.587c0.055,0.638,1.056,0.643,1,0c-0.213-2.472-2.142-4.651-3.683-6.466
				c-2.26-2.663-5.37-4.736-8.358-6.485c-5.686-3.328-13.943-2.969-19.586,0.27C418.087,295.772,418.591,296.636,419.15,296.315
				L419.15,296.315z"/>
		</g>
		<g>
			<path d="M454.041,239.891c1.957,9.906,5.069,19.541,6.955,29.463c1.018,5.355,1.529,10.783,1.327,16.232
				c-0.133,3.579,0.105,8.361-1.981,11.42c-0.364,0.534,0.502,1.033,0.863,0.504c1.894-2.773,1.794-6.697,1.991-9.917
				c0.308-5.012,0.073-9.93-0.633-14.9c-1.594-11.21-5.367-21.978-7.558-33.067C454.881,238.993,453.917,239.261,454.041,239.891
				L454.041,239.891z"/>
		</g>
		<g>
			<path d="M459.872,300.176c3.184-5.639,5.4-11.875,9.588-16.898c0.41-0.491-0.294-1.203-0.707-0.707
				c-4.249,5.098-6.513,11.379-9.744,17.102C458.691,300.233,459.555,300.737,459.872,300.176L459.872,300.176z"/>
		</g>
		<g>
			<path d="M531.342,272.51c5.365,6.963,9.448,15.025,18.132,18.397c0.602,0.233,0.86-0.733,0.266-0.965
				c-8.391-3.257-12.357-11.219-17.534-17.936C531.817,271.502,530.948,271.999,531.342,272.51L531.342,272.51z"/>
		</g>
		<g>
			<path d="M539.253,274.777c1.861,1.96,3.303,4.245,4.922,6.398c1.67,2.222,3.622,4.124,4.834,6.667
				c0.277,0.582,1.14,0.074,0.863-0.504c-1.1-2.31-2.754-4.224-4.398-6.159c-1.949-2.293-3.434-4.92-5.514-7.109
				C539.515,273.602,538.809,274.31,539.253,274.777L539.253,274.777z"/>
		</g>
		<g>
			<path d="M552.753,240.07c-2.917,3.405-3.023,8.205-3.962,12.388c-1.518,6.766-2.564,13.656-3.667,20.5
				c-0.102,0.631,0.862,0.901,0.965,0.266c0.952-5.915,1.908-11.844,3.087-17.719c0.925-4.613,1.115-11.028,4.284-14.728
				C553.877,240.29,553.173,239.58,552.753,240.07L552.753,240.07z"/>
		</g>
		<g>
			<path d="M546.457,264.724c0.788,4.413,1.566,8.657,1.793,13.151c0.22,4.326,0.75,8.52,1.486,12.789
				c1.326,7.689,3.186,16.18,7.439,22.846c0.346,0.542,1.211,0.041,0.863-0.504c-4.372-6.854-6.13-15.602-7.492-23.503
				c-0.774-4.492-1.142-8.941-1.395-13.487c-0.22-3.952-1.037-7.676-1.729-11.558C547.309,263.824,546.345,264.094,546.457,264.724
				L546.457,264.724z"/>
		</g>
		<g>
			<path d="M562.756,314.625c-0.854-5.072,4.31-8.616,8.213-10.64c5.518-2.862,11.787-3.727,17.553-1.171
				c0.584,0.259,1.093-0.603,0.504-0.863c-6.225-2.76-12.563-1.77-18.562,1.17c-4.429,2.171-9.6,6.256-8.673,11.77
				C561.898,315.525,562.861,315.256,562.756,314.625L562.756,314.625z"/>
		</g>
		<g>
			<path d="M563.509,194.838c-3.762,5.81-4.621,12.752-7.051,19.12c-0.229,0.604,0.737,0.862,0.965,0.266
				c2.397-6.284,3.236-13.147,6.949-18.88C564.724,194.8,563.857,194.299,563.509,194.838L563.509,194.838z"/>
		</g>
		<g>
			<path d="M476.342,179.505c-2.515,5.427-4.705,11.014-7.327,16.389c-1.662,3.407-4.494,7.124-3.349,11.121
				c0.178,0.619,1.143,0.355,0.965-0.266c-1.184-4.127,2.314-7.934,3.792-11.526c2.103-5.113,4.458-10.196,6.782-15.213
				C477.475,179.429,476.612,178.921,476.342,179.505L476.342,179.505z"/>
		</g>
		<g>
			<path d="M529.124,177.558c3.428,8.569,10.609,14.89,13,24c0.164,0.624,1.129,0.359,0.965-0.266c-2.395-9.122-9.573-15.431-13-24
				C529.852,176.701,528.885,176.958,529.124,177.558L529.124,177.558z"/>
		</g>
		<g>
			<path d="M505.773,238.758c-0.017-0.189-0.041-0.395-0.015-0.585c0.009-0.063,0.025-0.123,0.044-0.183
				c0,0.001-0.015,0.01,0.014-0.019c-0.079,0.081-0.138,0.047-0.091,0.059c-0.01-0.003,0.146,0.075,0.161,0.087
				c0.212,0.166,0.351,0.352,0.478,0.579c0.057,0.102,0.081,0.17,0.115,0.303c0.012,0.048-0.01,0.206,0.02,0.138
				c-0.016,0.037-0.002,0.05-0.081,0.079c-0.134,0.049-0.305,0.065-0.444,0.044c-0.147-0.022-0.115,0.005-0.113-0.055
				c0.002-0.063,0.098-0.202,0.147-0.262c0.077-0.093,0.168-0.172,0.263-0.2c-0.182,0.054-0.11-0.161-0.165,0.052
				c-0.006,0.026-0.129,0.022-0.086,0.029c-0.024-0.004,0.042-0.195,0.069-0.267c0.23-0.603-0.736-0.862-0.965-0.266
				c-0.306,0.801,0.176,1.641,1.088,1.509c0.817-0.119,1.176-1.134,0.658-1.761c-0.976-1.179-3.01,1.367-1.449,2.087
				c0.587,0.271,1.519,0.175,1.895-0.407c0.309-0.476,0.153-1.063-0.089-1.528c-0.451-0.865-1.884-1.831-2.39-0.467
				c-0.117,0.318-0.094,0.703-0.065,1.033C504.83,239.395,505.83,239.4,505.773,238.758L505.773,238.758z"/>
		</g>
		<g>
			<path d="M505.423,261.958c-0.153-0.901,0.879-0.561,1.154-0.049c0.222,0.415-0.083,0.958-0.553,0.853
				c-0.453-0.102-0.981-0.603-0.713-1.08c0.176-0.313,0.58,0.289,0.62,0.093c0.016-0.077-0.003-0.018-0.079,0.006
				c-0.028,0.009-0.103,0.008-0.055,0.016c-0.104-0.017,0.042,0.012,0.071,0.099c-0.024-0.073,0.224-0.3,0.092-0.249
				c-0.247,0.095-0.22-0.168-0.14,0.132c0.063,0.236-0.047-0.005,0.186-0.012c0.118,0.03,0.131,0.027,0.038-0.009
				c-0.124-0.065-0.079,0.005,0.136,0.211c-0.038-0.11-0.058-0.232-0.093-0.344c-0.191-0.613-1.157-0.352-0.965,0.266
				c0.102,0.324,0.134,0.605,0.478,0.758c0.384,0.17,0.82,0.155,1.073-0.229c0.33-0.501,0.115-1.427-0.447-1.683
				c-0.843-0.383-1.458,0.705-1.323,1.424c0.133,0.711,1.042,0.725,1.537,0.446c0.715-0.403,0.534-1.261-0.065-1.665
				c-0.817-0.552-1.755-0.391-2.089,0.602c-0.34,1.007,0.595,1.902,1.471,2.182c1.048,0.334,1.809-0.557,1.863-1.52
				c0.058-1.004-0.848-1.732-1.771-1.821c-1.087-0.105-1.549,0.921-1.394,1.838C504.566,262.858,505.529,262.589,505.423,261.958
				L505.423,261.958z"/>
		</g>
		<g>
			<path d="M505.589,284.125c-0.111-0.301-0.167-0.619-0.107-0.938c0.076-0.401,0.309-0.398,0.658-0.28
				c0.324,0.109,0.363,0.508,0.229,0.774c-0.203,0.4-0.748,0.271-1.027,0.036c-0.363-0.307-0.171-0.698,0.289-0.698
				c0.514,0,0.546,0.757,0.372,1.065c-0.085,0.151-0.197,0.025-0.302-0.087c-0.046-0.05-0.073-0.161-0.072-0.153
				c0.006,0.135-0.137,0.104,0.109,0.063c0.635-0.106,0.365-1.07-0.266-0.965c-1.875,0.315-0.121,3.154,1.155,1.939
				c0.739-0.704,0.619-2.029-0.228-2.598c-0.909-0.609-2.147-0.048-2.271,1.039c-0.116,1.032,1.23,1.777,2.109,1.584
				c0.908-0.2,1.387-1.146,1.13-2.016c-0.263-0.891-1.434-1.317-2.23-0.894c-0.755,0.401-0.763,1.517-0.572,2.224
				c0.017,0.058,0.036,0.113,0.058,0.169C504.847,284.99,505.813,284.73,505.589,284.125L505.589,284.125z"/>
		</g>
		<g>
			<path d="M506.756,302.958c-0.251-0.758,0.935-0.665,0.843-0.084c-0.095,0.587-1.48,0.506-0.968-0.271
				c0.115-0.174,0.188-0.162,0.298-0.051c0.122,0.125,0.237,0.35,0.302,0.513c0.079,0.2,0.022-0.03,0.241-0.123
				c-0.023,0.01,0.01,0.015-0.103-0.018c0.01,0.003-0.186-0.1-0.147-0.068c-0.02-0.016-0.102-0.116-0.031-0.019
				c-0.029-0.041,0.029,0.157-0.02,0.254c-0.021,0.038-0.106,0.093-0.006,0.039c0.061-0.032,0.171-0.043,0.241-0.057
				c-0.189-0.077-0.376-0.153-0.564-0.23c0.015,0.024,0.03,0.048,0.046,0.071c-0.018-0.128-0.034-0.257-0.051-0.385
				c0.072-0.259,0.092-0.171-0.06-0.029c-0.085,0.079-0.117,0.186-0.153,0.292c-0.206,0.612,0.76,0.873,0.965,0.266
				c-0.12,0.156-0.114,0.174,0.017,0.054c0.086-0.072,0.15-0.153,0.18-0.264c0.054-0.192,0.025-0.343-0.081-0.509
				c-0.128-0.2-0.335-0.276-0.564-0.23c-0.582,0.118-1.199,0.585-0.814,1.233c0.254,0.427,0.862,0.668,1.34,0.581
				c0.755-0.138,0.629-0.969,0.374-1.472c-0.357-0.702-0.968-1.219-1.762-0.837c-0.598,0.288-0.885,1.079-0.737,1.694
				c0.215,0.899,1.392,1.096,2.13,0.82c0.969-0.361,1.193-1.536,0.532-2.285c-0.506-0.573-1.512-0.557-2.068-0.081
				c-0.433,0.369-0.517,0.939-0.345,1.461C505.993,303.833,506.959,303.572,506.756,302.958L506.756,302.958z"/>
		</g>
		<path style="fill:#A66B38;" d="M410.606,315.591c2.667-3.667,8.959-12.25,10.167-12.75c5.357-2.217,16.625,0.917,20.333,8.583
			c3.495,7.227-16.333,14-24,18c-6.167,6.834-6.166,7.999-9.666,8.833c-3.5,0.834-4.5-1.333-4.5-1.333
			c-3,0.834-5.334-1.333-5.334-1.333c-2.833,0.333-4.166-2-7.333-2c-3.167,0-4.667-2.001-7-3.834c-2.333-1.833-2-1.999-3-8.166
			c-1-6.167,0-10.167,1.5-10.667s3.499,3,4.333,12.667c1.334,0.333,2.167,0.5,2.167,0.5c-0.667-5,2-9.667,2-9.667
			c-3.167-7.5-2.833-10,1.167-11.5s11.5-0.166,6,5.334C403.606,312.424,408.772,313.424,410.606,315.591z"/>
		<g>
			<path d="M398.627,335.154c-3.619-4.569-1.341-10.9-2.131-16.207c-0.249-1.675-0.505-3.247-0.119-4.92
				c0.852-3.694,3.258-0.103,3.774,0.756c1.571,2.609,1.511,6.209,2.265,9.107c0.162,0.624,1.127,0.359,0.965-0.266
				c-0.957-3.679-0.934-7.649-3.34-10.759c-1.349-1.742-3.471-2.015-4.375,0.259c-0.592,1.487-0.582,2.978-0.359,4.556
				c0.349,2.48,0.495,4.765,0.358,7.263c-0.215,3.909-0.283,7.712,2.256,10.918C398.32,336.367,399.022,335.654,398.627,335.154
				L398.627,335.154z"/>
		</g>
		<g>
			<path d="M403.648,337.258c-0.143-3.474-0.155-6.901,0.09-10.37c0.035-0.295,0.071-0.589,0.107-0.884
				c0.082-1.072,0.893-1.455,2.43-1.148c0.523,0.459,0.862,1.178,1.174,1.789c0.768,1.504,1.638,4.21,0.768,5.736
				c-0.32,0.561,0.544,1.064,0.863,0.504c1.499-2.631-0.606-9.582-4.182-9.627c-1.504-0.019-2.001,2.013-2.11,3.126
				c-0.358,3.623-0.289,7.242-0.14,10.874C402.675,337.9,403.675,337.903,403.648,337.258L403.648,337.258z"/>
		</g>
		<g>
			<path d="M390.58,315.072c0.764-1.69,1.311-3.443,1.937-5.186c0.423-1.174,1.569-3.173,3.143-1.915
				c0.948,0.758,0.992,2.83,1.114,3.911c0.071,0.633,1.072,0.641,1,0c-0.252-2.235-0.79-6.141-3.975-5.075
				c-1.149,0.385-1.706,1.371-2.111,2.431c-0.678,1.775-1.185,3.593-1.971,5.33C389.453,315.15,390.315,315.659,390.58,315.072
				L390.58,315.072z"/>
		</g>
		<g>
			<path d="M387.541,324.016c0.452,1.289,0.779,2.614,1.286,3.886c0.358,0.897,0.858,2.105,1.946,2.231c0.64,0.074,0.633-0.927,0-1
				c-0.684-0.079-1.185-2.016-1.356-2.506c-0.331-0.95-0.578-1.928-0.911-2.877C388.294,323.146,387.327,323.405,387.541,324.016
				L387.541,324.016z"/>
		</g>
		<g>
			<path d="M395.291,319c-0.677,2.07-1.683,4.018-2.25,6.125c-0.167,0.623,0.797,0.888,0.965,0.266
				c0.566-2.107,1.573-4.055,2.25-6.125C396.457,318.651,395.491,318.39,395.291,319L395.291,319z"/>
		</g>
		<g>
			<path d="M419.342,324.131c-1.152,2.129-1.701,4.83-3.672,6.398c-0.505,0.401,0.208,1.104,0.707,0.707
				c2.053-1.634,2.63-4.387,3.828-6.602C420.512,324.068,419.648,323.564,419.342,324.131L419.342,324.131z"/>
		</g>
		<g>
			<path d="M419.281,303.365c4.74-1.314,10.912,0.044,15.188,2.359c2.245,1.215,3.965,3.15,5.23,5.332
				c1.122,1.935,2.732,5.129,1.268,7.199c-0.374,0.527,0.494,1.026,0.863,0.504c2.718-3.839-2.15-10.273-4.996-12.634
				c-2.223-1.844-4.9-2.643-7.645-3.333c-3.346-0.843-6.8-1.327-10.174-0.393C418.395,302.572,418.659,303.537,419.281,303.365
				L419.281,303.365z"/>
		</g>
		<g>
			<path d="M569.83,322.135c4.625-6.786,13.942-11.777,22.185-10.02c0.629,0.134,0.897-0.83,0.266-0.965
				c-8.717-1.858-18.421,3.299-23.315,10.48C568.602,322.165,569.47,322.665,569.83,322.135L569.83,322.135z"/>
		</g>
		<g>
			<path d="M590.381,337.766c0.446-1.349,1.336-2.684,2.504-3.51c1.785-1.264,1.883,2.016,1.869,3.091
				c-0.032,2.677-1.184,6.702-4.604,4.979c-0.574-0.289-1.08,0.573-0.504,0.863c4.6,2.317,6.223-3.047,6.099-6.675
				c-0.053-1.555-0.556-3.959-2.602-3.486c-1.812,0.418-3.197,2.871-3.728,4.472C589.213,338.114,590.179,338.375,590.381,337.766
				L590.381,337.766z"/>
		</g>
		<g>
			<path d="M595.148,333.383c0.275-2.132,1.226-4.205,2.217-6.1c0.325-0.62,0.778-1.153,1.269-1.647
				c2.063-2.079,1.898,3.987,1.89,4.247c-0.055,1.802,0.476,3.621,0.544,5.426c0.111,2.897-0.919,8.576-5.292,6.518
				c-0.579-0.273-1.088,0.589-0.504,0.863c2.501,1.178,5.375-0.021,6.266-2.754c1.291-3.961-0.021-8.334,0.067-12.384
				c0.037-1.7-1.258-4.511-3.282-2.932c-2.417,1.886-3.796,5.838-4.174,8.763C594.066,334.022,595.067,334.013,595.148,333.383
				L595.148,333.383z"/>
		</g>
		<g>
			<path d="M602.96,320.481c4.313,0.975,4.063,6.491,4.832,9.944c0.616,2.77,1.301,5.477,1.148,8.342
				c-0.198,3.694-3.333,5.513-6.713,5.417c-0.646-0.019-0.644,0.981,0,1c2.355,0.066,5.052-0.632,6.451-2.712
				c1.948-2.9,1.329-6.555,0.657-9.781c-0.608-2.923-0.993-6.006-1.823-8.872c-0.633-2.186-2.041-3.795-4.286-4.303
				C602.598,319.375,602.331,320.339,602.96,320.481L602.96,320.481z"/>
		</g>
		<g>
			<path d="M610.627,336.486c1.265-1.392,2.344-2.779,3.403-4.326c0.819-1.196,2.134-2.873,3.866-2.096
				c1.236,0.555,1.586,2.249,1.699,3.423c0.352,3.664-1.713,8.965-5.947,8.771c-0.644-0.029-0.643,0.971,0,1
				c5.047,0.231,7.662-6.111,6.873-10.485c-0.295-1.639-1.55-4.326-3.685-3.96c-1.421,0.244-2.33,1.148-3.218,2.234
				c-1.274,1.559-2.335,3.23-3.699,4.732C609.487,336.255,610.192,336.965,610.627,336.486L610.627,336.486z"/>
		</g>
		<g>
			<path d="M425.308,330.907c3.705,0.689,7.479,0.304,11.199,0.979c4.294,0.779,7.9,2.077,11.612,4.414
				c6.65,4.185,13.536,7.747,20.932,10.445c7.765,2.832,15.848,4.707,23.819,6.846c8.323,2.232,16.931,3.523,24.938,6.816
				c0.597,0.245,0.853-0.723,0.266-0.965c-7.745-3.185-16.017-4.377-24.051-6.576c-7.974-2.182-16.025-4.074-23.845-6.78
				c-7.948-2.75-15.23-6.671-22.32-11.132c-3.245-2.042-6.514-3.179-10.268-3.885c-3.996-0.751-8.046-0.388-12.016-1.127
				C424.943,329.825,424.674,330.789,425.308,330.907L425.308,330.907z"/>
		</g>
		<g>
			<path d="M448.274,331.258c8.991,0.08,17.604,2.391,25.867,5.815c0.596,0.247,0.852-0.722,0.266-0.965
				c-8.345-3.459-17.059-5.77-26.133-5.851C447.629,330.252,447.63,331.252,448.274,331.258L448.274,331.258z"/>
		</g>
		<g>
			<path d="M455.975,334.24c5.531,1.863,10.858,3.582,16.109,6.201c5.154,2.57,10.129,5.487,15.271,8.081
				c0.574,0.29,1.08-0.573,0.504-0.863c-5.426-2.737-10.684-5.794-16.123-8.507c-5.046-2.517-10.182-4.087-15.496-5.877
				C455.628,333.069,455.367,334.035,455.975,334.24L455.975,334.24z"/>
		</g>
		<g>
			<path d="M457.642,323.573c4.169,1.687,7.968,4.172,12.132,5.843c4.37,1.753,8.971,2.814,13.368,4.491
				c0.603,0.229,0.862-0.737,0.266-0.965c-4.126-1.573-8.429-2.608-12.56-4.166c-4.465-1.685-8.508-4.375-12.94-6.168
				C457.31,322.367,457.052,323.334,457.642,323.573L457.642,323.573z"/>
		</g>
		<g>
			<path d="M491.941,333.758c5.977-0.079,11.947-0.907,17.929-1.127c5.909-0.217,11.693-1.053,17.561-1.693
				c11.231-1.227,22.378-3.724,32.975-7.697c0.598-0.225,0.339-1.191-0.266-0.965c-10.821,4.059-22.167,6.511-33.63,7.763
				c-5.56,0.607-11.042,1.368-16.641,1.593c-5.978,0.24-11.956,1.048-17.929,1.127C491.297,332.767,491.296,333.767,491.941,333.758
				L491.941,333.758z"/>
		</g>
		<g>
			<path d="M519.074,347.906c2.408-0.941,4.914-1.476,7.416-2.1c2.662-0.664,5.062-1.768,7.508-2.982
				c5.51-2.735,10.711-5.354,16.825-6.439c5.905-1.047,11.986-0.975,17.958-0.811c5.661,0.155,11.37,0.163,16.693,2.332
				c0.598,0.243,0.854-0.725,0.266-0.965c-5.15-2.099-10.584-2.159-16.061-2.34c-5.768-0.19-11.609-0.271-17.337,0.549
				c-5.932,0.85-11.06,2.855-16.371,5.553c-2.906,1.478-5.772,3.006-8.916,3.918c-2.755,0.8-5.563,1.272-8.246,2.32
				C518.215,347.174,518.473,348.141,519.074,347.906L519.074,347.906z"/>
		</g>
		<g>
			<path d="M570.475,338.608c-9.335,1.485-17.176,7.083-25.319,11.49c-8.794,4.759-17.946,8.983-27.108,12.983
				c-4.751,2.075-9.585,3.507-14.58,4.841c-4.912,1.313-9.704,3.055-14.516,4.686c-4.764,1.616-9.595,2.994-14.422,4.402
				c-4.588,1.338-9.324,3.078-14.055,3.764c-0.637,0.093-0.365,1.056,0.266,0.965c4.735-0.688,9.459-2.438,14.055-3.765
				c4.831-1.394,9.655-2.797,14.422-4.401c4.821-1.624,9.612-3.325,14.516-4.686c4.734-1.315,9.32-2.626,13.864-4.533
				c8.939-3.754,17.793-7.984,26.374-12.492c8.654-4.547,16.91-10.721,26.769-12.289
				C571.376,339.472,571.105,338.509,570.475,338.608L570.475,338.608z"/>
		</g>
		<g>
			<path d="M546.692,350.522c4.683-2.18,8.951-4.565,14.083-5.549c4.81-0.922,9.652-1.424,14.298-3.067
				c0.604-0.214,0.344-1.181-0.266-0.965c-4.919,1.741-10.091,2.262-15.188,3.238c-4.865,0.932-8.993,3.413-13.431,5.48
				C545.604,349.931,546.112,350.793,546.692,350.522L546.692,350.522z"/>
		</g>
		<g>
			<path d="M406.754,362.611c7.724,6.068,15.107,12.586,23.269,18.078c0.536,0.361,1.036-0.506,0.504-0.863
				c-8.09-5.445-15.409-11.906-23.066-17.922C406.96,361.511,406.247,362.213,406.754,362.611L406.754,362.611z"/>
		</g>
		<g>
			<path d="M563.151,393.03c5.038-1.855,10.19-3.117,15.037-5.483c5.212-2.545,10.365-5.202,15.338-8.19
				c0.553-0.331,0.05-1.196-0.504-0.863c-4.711,2.83-9.583,5.355-14.511,7.784c-5.06,2.493-10.364,3.85-15.626,5.788
				C562.286,392.287,562.545,393.253,563.151,393.03L563.151,393.03z"/>
		</g>
		<g>
			<path d="M407.467,395.76c3.286,4.899,8.738,1.42,12.684-0.32c0.59-0.26,0.08-1.121-0.504-0.863
				c-3.378,1.489-8.41,5.013-11.316,0.68C407.973,394.723,407.106,395.223,407.467,395.76L407.467,395.76z"/>
		</g>
		<g>
			<path d="M408.021,400.565c3.245,2.35,5.878,1.227,8.879-0.875c0.524-0.367,0.025-1.234-0.504-0.863
				c-1.023,0.716-2.016,1.46-3.186,1.922c-1.727,0.68-3.299-0.044-4.685-1.047C408.002,399.322,407.504,400.19,408.021,400.565
				L408.021,400.565z"/>
		</g>
		<g>
			<path d="M410.141,405.24c2.086,0.463,4.044-0.21,5.885-1.176c0.571-0.3,0.066-1.162-0.504-0.863
				c-1.591,0.834-3.302,1.478-5.115,1.074C409.778,404.136,409.511,405.1,410.141,405.24L410.141,405.24z"/>
		</g>
		<g>
			<path d="M577.648,276.883c-3.954,0.143-7.533,1.775-11.15,3.237c-3.483,1.409-6.767,3.324-9.852,5.456
				c-0.527,0.364-0.027,1.231,0.504,0.863c2.839-1.961,5.819-3.657,8.965-5.076c3.601-1.624,7.544-3.336,11.533-3.48
				C578.291,277.859,578.294,276.859,577.648,276.883L577.648,276.883z"/>
		</g>
		<g>
			<path d="M560.4,278.19c5.33-2.346,11.252-2.663,16.998-2.682c0.645-0.002,0.645-1.002,0-1c-5.938,0.02-11.999,0.395-17.502,2.818
				C559.307,277.585,559.816,278.447,560.4,278.19L560.4,278.19z"/>
		</g>
		<g>
			<path d="M481.857,133.009c1.112-0.006,2.222-0.083,3.334-0.083c0.645,0,0.645-1,0-1c-1.112,0-2.222,0.077-3.334,0.083
				C481.213,132.012,481.213,133.012,481.857,133.009L481.857,133.009z"/>
		</g>
		<g>
			<path d="M483.359,135.69c1.082-0.566,2.238-0.965,3.334-1.5c0.58-0.283,0.073-1.145-0.504-0.863
				c-1.097,0.535-2.253,0.933-3.334,1.5C482.283,135.126,482.789,135.989,483.359,135.69L483.359,135.69z"/>
		</g>
		<g>
			<path d="M517.004,134.029c0.581,0.455,1.227,0.773,1.867,1.134c0.451,0.255,1.063,0.375,1.467,0.699
				c0.498,0.399,1.21-0.304,0.707-0.707c-0.376-0.302-0.85-0.466-1.284-0.666c-0.697-0.321-1.445-0.694-2.05-1.167
				C517.21,132.93,516.496,133.632,517.004,134.029L517.004,134.029z"/>
		</g>
		<g>
			<path d="M518.524,132.342c1.048,0.029,2.035,0.465,3.083,0.5c0.646,0.021,0.644-0.979,0-1c-1.043-0.034-2.032-0.471-3.083-0.5
				C517.879,131.324,517.881,132.324,518.524,132.342L518.524,132.342z"/>
		</g>
		<g>
			<path style="fill:#FAA55F;" d="M530.188,138.69c2.637,1.947,2.966,6.142,2.245,9.042c-0.3,1.208-0.952,2.295-1.817,3.176
				c-1.106,1.126-3.927,0.96-4.609-0.699c-0.242-0.588-1.21-0.331-0.965,0.266c1.455,3.537,5.774,2.198,7.406-0.261
				c2.341-3.529,1.736-9.809-1.756-12.386C530.173,137.443,529.676,138.312,530.188,138.69L530.188,138.69z"/>
		</g>
		<g>
			<path d="M484.873,89.006c-1.677-3.068,1.582-6.302,4.367-7.099c3.001-0.857,5.539,2.953,8.401,3.474
				c2.137,0.388,4.327-0.942,6.116-1.899c2.697-1.443,5.25-3.218,8.395-3.436c3.643-0.252,6.388,2.192,7.169,5.517
				c0.37,1.576,0.56,3.527,2.071,4.507c1.969,1.277,4.335,0.894,6.552,0.643c4.278-0.483,7.313,2.151,8.348,6.178
				c0.161,0.624,1.125,0.359,0.965-0.266c-0.756-2.939-2.439-5.17-5.17-6.512c-3.27-1.607-7.601,1.428-10.489-1.193
				c-1.206-1.094-1.209-3.354-1.62-4.829c-0.277-0.996-0.797-1.85-1.478-2.615c-1.602-1.796-4.851-2.723-7.172-2.366
				c-3.227,0.495-5.928,2.358-8.752,3.869c-2.561,1.371-4.776,1.963-7.382,0.346c-1.309-0.813-2.348-1.812-3.811-2.371
				c-4.369-1.67-9.518,4.631-7.373,8.555C484.319,90.077,485.183,89.572,484.873,89.006L484.873,89.006z"/>
		</g>
		<g>
			<path d="M487.757,91.225c1.426-3.392,4.857,0.482,5.993,1.445c0.72,0.609,1.714,1.281,2.699,1.316
				c1.224,0.044,2.154-0.361,3.181-1.009c1.02-0.644,1.971-1.229,3.134-1.603c2.079-0.666,2.735,1.118,3.951,1.949
				c2.193,1.499,4.909-0.139,7.313-0.256c4.677-0.227,5.699,3.394,7.306,6.768c0.954,2.001,2.591,2.455,4.643,2.051
				c2.646-0.522,4.498-0.775,6.694,1.11c1.338,1.148,2.191,2.806,3.274,4.181c2.754,3.498,10.451,2.959,10.661-2.252
				c0.026-0.645-0.974-0.643-1,0c-0.1,2.471-2.354,3.307-4.469,3.484c-2.366,0.199-3.869-1.054-5.168-2.845
				c-1.765-2.433-3.372-4.62-6.494-5.228c-1.226-0.238-2.602,0.287-3.765,0.586c-2.653,0.682-3.472-1.329-4.262-3.369
				c-0.859-2.217-2.058-4.29-4.507-5.035c-1.47-0.447-2.855-0.503-4.384-0.332c-1.49,0.167-3.454,1.264-4.901,0.573
				c-1.396-0.667-1.972-2.001-3.55-2.432c-1.25-0.341-2.671,0.432-3.718,1.001c-1.961,1.064-3.378,2.357-5.592,0.895
				c-1.29-0.852-2.281-2.071-3.604-2.896c-1.807-1.126-3.656-0.14-4.401,1.632C486.542,91.553,487.511,91.81,487.757,91.225
				L487.757,91.225z"/>
		</g>
		<g>
			<path d="M482.274,95.426c-0.132-2.363-2.565-3.632-4.604-4.256c-2.773-0.849-5.632,0.408-6.754,3.049
				c-0.612,1.442-0.238,3.251-0.241,4.763c-0.006,3.045-2.823,3.292-5.041,4.016c-2.765,0.903-3.821,3.221-3.969,5.939
				c-0.118,2.179-0.404,3.744-2.396,4.984c-1.119,0.697-2.388,1.168-3.593,1.691c-2.085,0.907-4.272,1.981-5.24,4.163
				c-0.381,0.859-0.439,1.943-0.26,2.855c0.511,2.618,2.702,4.602,0.077,7.108c-2.441,2.331-2.608,6.006-1.629,8.986
				c0.2,0.61,1.166,0.349,0.965-0.266c-0.699-2.128-0.783-4.019,0.137-6.107c0.612-1.388,1.811-2.323,2.705-3.508
				c1.45-1.921-1.316-5.464-1.339-7.43c-0.049-4.317,7.189-5.346,9.868-7.469c1.75-1.386,1.632-3.676,1.74-5.668
				c0.236-4.374,4.3-4.136,7.24-5.718c1.822-0.98,1.775-3.356,1.703-5.121c-0.115-2.82,0.843-5.169,3.935-5.496
				c1.894-0.2,5.568,1.207,5.695,3.484C481.31,96.067,482.31,96.07,482.274,95.426L482.274,95.426z"/>
		</g>
		<g>
			<path d="M484.193,99.827c-5.037-2.133-11.314,2.629-11.919,7.765c-0.202,1.715-0.205,3.437-0.6,5.127
				c-0.491,2.105-2.515,3.21-4.071,4.471c-2.628,2.13-2.616,5.02-1.665,8.015c0.812,2.555,0.73,4.542-1.728,5.998
				c-1.2,0.71-2.439,1.224-3.456,2.204c-2.827,2.721-0.271,7.059-1.85,10.218c-0.852,1.703-3.382,1.676-4.98,1.606
				c-1.197-0.052-2.189,0.577-2.958,1.427c-0.979,1.082-1.037,2.773-1.675,4.035c-0.646,1.28-2.252,0.684-3.198,0.399
				c-0.247-0.074-1.997-0.617-1.985-0.999c0.02-0.645-0.98-0.643-1,0c-0.047,1.516,3.198,2.144,4.211,2.319
				c2.398,0.415,3.142-1.645,3.699-3.59c1.117-3.912,5.92-1.609,8.387-4.185c2.977-3.111-1.015-8.243,2.777-11.151
				c1.819-1.395,4.965-1.972,5.26-4.726c0.202-1.885-0.48-3.521-0.985-5.31c-0.895-3.17,1.113-4.952,3.314-6.692
				c2.773-2.193,3.148-4.531,3.38-7.927c0.318-4.664,5.404-10.313,10.539-8.14C484.275,100.939,484.786,100.078,484.193,99.827
				L484.193,99.827z"/>
		</g>
		<g>
			<path d="M488.291,95.625c-1.217,6.02,6.129,3.863,9.45,3.026c1.999-0.503,4.065-0.381,5.962,0.459
				c2.868,1.27,2.686,3.985,3.117,6.574c0.691,4.146,5.036,3.389,7.904,2.32c2.491-0.929,5.233-0.926,7.57,0.43
				c1.912,1.109,2.213,3.798,3.38,5.514c1.977,2.907,6.465,1.312,9.129,0.705c3.353-0.762,4.663,1.509,7.218,2.869
				c1.722,0.917,4.079,0.663,5.885,0.217c2.663-0.657,5.299-3.929,5.2-6.649c-0.023-0.643-1.023-0.645-1,0
				c0.198,5.476-7.503,7.526-11.133,4.527c-1.248-1.031-2.146-1.802-3.794-2.104c-1.636-0.301-3.467,0.366-5.023,0.757
				c-2.018,0.506-4.561,0.728-5.869-1.197c-0.822-1.209-1.18-2.718-1.924-3.981c-1.479-2.509-5.006-2.897-7.59-2.667
				c-1.551,0.138-3.025,0.917-4.496,1.375c-4.163,1.294-4.47-2.457-4.831-5.225c-0.361-2.778-2.669-4.38-5.228-5.016
				c-2.31-0.574-4.508,0.08-6.729,0.633c-2.393,0.596-7.045,1.713-6.233-2.301C489.383,95.261,488.419,94.993,488.291,95.625
				L488.291,95.625z"/>
		</g>
		<g>
			<path d="M487.396,162.939c8.686,6.647,24.165,6.362,31.231-2.578c0.395-0.5-0.308-1.213-0.707-0.707
				c-6.807,8.613-21.656,8.822-30.019,2.422C487.389,161.684,486.892,162.553,487.396,162.939L487.396,162.939z"/>
		</g>
		<g>
			<path d="M467.843,381.843c2.918,4.098,5.772,8.236,8.859,12.21c1.448,1.863,2.98,3.678,4.787,5.207
				c1.675,1.417,3.742,2.277,5.432,3.685c0.491,0.409,1.203-0.294,0.707-0.707c-1.339-1.115-2.845-1.961-4.312-2.893
				c-2.129-1.353-3.77-3.348-5.343-5.285c-3.306-4.072-6.228-8.451-9.268-12.72C468.336,380.818,467.468,381.316,467.843,381.843
				L467.843,381.843z"/>
		</g>
		<g>
			<path d="M541.264,397.523c9.072-3.195,18.12-6.463,26.93-10.334c0.59-0.259,0.08-1.12-0.504-0.863
				c-8.731,3.836-17.702,7.066-26.692,10.232C540.394,396.772,540.654,397.738,541.264,397.523L541.264,397.523z"/>
		</g>
	</g>
	<g>
		<g>
			<path style="fill:#BD7C40;" d="M191.269,383.694c-1.431-4.811-15.208-51.021-15.604-52.531
				c-0.395-1.512-0.392-11.407,0.219-10.719c0.61,0.687,5.26,7.145,5.75,9.069c0.491,1.924,15.594,54.042,15.594,54.042
				L191.269,383.694z"/>
			<path style="fill:#2A458A;" d="M175.398,324.924c0.029-2.555,0.182-4.822,0.485-4.479c0.284,0.321,1.45,1.902,2.661,3.689
				C177.515,324.395,176.304,324.697,175.398,324.924z M181.634,329.514c-0.042-0.167-0.126-0.379-0.226-0.607
				c-0.917,0.251-3.851,1.059-5.842,1.634c0.029,0.27,0.063,0.482,0.099,0.623c0.396,1.511,14.173,47.721,15.604,52.531l5.959-0.139
				C197.227,383.556,182.125,331.438,181.634,329.514z"/>
			<path style="fill:#BD7C40;" d="M196.533,382.188c0.773-4.961,6.269-48.652,6.561-50.186c0.292-1.536,4.539-10.454,4.794-9.566
				c0.256,0.886,1.678,8.739,1.295,10.686c-0.384,1.95-6.521,50.057-6.521,50.057L196.533,382.188z"/>
			<path style="fill:#B0D2FF;" d="M205.529,326.261c1.122-2.291,2.231-4.269,2.358-3.826c0.119,0.413,0.492,2.348,0.817,4.488
				C207.663,326.708,206.442,326.452,205.529,326.261z M209.183,333.121c0.032-0.167,0.048-0.396,0.056-0.645
				c-0.935-0.176-3.925-0.729-5.968-1.08c-0.088,0.255-0.149,0.461-0.177,0.604c-0.292,1.534-5.787,45.226-6.561,50.186l6.128,0.99
				C202.661,383.178,208.799,335.071,209.183,333.121z"/>
			<g>
				<path style="fill:#BD7C40;" d="M194.759,382.797c0.161-5.019,0.986-59.014,1.088-60.573c0.102-1.561,3.227-10.938,3.589-10.091
					c0.362,0.848,2.732,8.465,2.591,10.445c-0.143,1.983-1.893,61.047-1.893,61.047L194.759,382.797z"/>
				<path style="fill:#E4F1F5;" d="M197.563,316.225c0.834-2.414,1.693-4.514,1.873-4.092c0.169,0.396,0.775,2.27,1.359,4.353
					C199.735,316.403,198.492,316.301,197.563,316.225z M202.026,322.578c0.012-0.171-0.001-0.398-0.023-0.647
					c-0.949-0.058-3.984-0.234-6.055-0.329c-0.056,0.265-0.092,0.477-0.102,0.622c-0.102,1.56-0.927,55.555-1.088,60.573
					l5.375,0.828C200.134,383.625,201.884,324.561,202.026,322.578z"/>
			</g>
			<g>
				<path d="M176.082,344.239c0.222,13.402,0.444,26.805,0.666,40.207c0.004,0.269,0.224,0.505,0.5,0.5
					c11.556-0.225,23.111-0.449,34.667-0.674c0.267-0.005,0.507-0.224,0.5-0.5c-0.333-13.29-0.667-26.58-1-39.87
					c-0.016-0.644-1.016-0.646-1,0c0.333,13.29,0.667,26.58,1,39.87c0.167-0.167,0.333-0.333,0.5-0.5
					c-11.556,0.225-23.111,0.449-34.667,0.674c0.167,0.167,0.333,0.333,0.5,0.5c-0.222-13.402-0.444-26.805-0.666-40.207
					C177.071,343.595,176.071,343.594,176.082,344.239L176.082,344.239z"/>
			</g>
			<path d="M175.748,339.36c-2.833,0-3,5.047,0.167,5.215c3.167,0.169,34.167,0,36.5,0c2.333,0,3-5.552-0.833-5.383
				C207.749,339.361,175.748,339.36,175.748,339.36z"/>
		</g>
		<g>
			<path d="M177.199,350.057c2.864-1.794,5.64-4.177,8.75-5.5c0.592-0.252,0.082-1.113-0.505-0.863
				c-3.109,1.322-5.886,3.706-8.75,5.5C176.149,349.534,176.65,350.4,177.199,350.057L177.199,350.057z"/>
		</g>
		<g>
			<path d="M176.938,352.951c2.622-1.51,5.227-3.046,7.88-4.502c2.373-1.304,4.948-3.168,7.522-3.986
				c0.612-0.195,0.351-1.16-0.266-0.965c-2.397,0.763-4.778,2.409-6.964,3.658c-2.888,1.65-5.794,3.27-8.677,4.932
				C175.874,352.409,176.378,353.273,176.938,352.951L176.938,352.951z"/>
		</g>
		<g>
			<path d="M176.574,357.807c3.538-2.57,7.596-4.726,11.412-6.865c1.797-1.009,3.659-1.888,5.476-2.858
				c2.207-1.18,4.306-2.78,6.617-3.726c0.588-0.241,0.331-1.209-0.266-0.965c-1.888,0.772-3.5,2.017-5.291,2.978
				c-2.079,1.118-4.192,2.166-6.27,3.283c-4.089,2.2-8.429,4.561-12.184,7.289C175.553,357.318,176.051,358.186,176.574,357.807
				L176.574,357.807z"/>
		</g>
		<g>
			<path d="M177.074,361.682c2.524-1.857,5.41-3.216,8.177-4.672c3.325-1.75,6.627-3.54,9.906-5.374
				c2.937-1.644,5.703-3.6,8.644-5.222c1.219-0.673,2.858-1.218,3.874-2.186c0.468-0.445-0.24-1.151-0.707-0.707
				c-1.007,0.959-2.739,1.515-3.955,2.185c-2.843,1.568-5.53,3.459-8.361,5.065c-5.915,3.355-12.604,6.014-18.083,10.047
				C176.056,361.196,176.553,362.065,177.074,361.682L177.074,361.682z"/>
		</g>
		<g>
			<path d="M177.258,364.873c11.828-5.029,23.216-11.003,34.188-17.691c0.549-0.335,0.047-1.2-0.505-0.863
				c-10.972,6.688-22.359,12.662-34.187,17.691C176.162,364.262,176.672,365.122,177.258,364.873L177.258,364.873z"/>
		</g>
		<g>
			<path d="M177.255,368.945c5.32-2.921,11.305-4.333,16.733-7.046c3.045-1.522,6.151-2.907,9.141-4.539
				c2.82-1.54,5.276-3.626,8.076-5.192c0.563-0.315,0.059-1.179-0.505-0.863c-2.528,1.414-4.778,3.257-7.269,4.734
				c-2.922,1.733-6.053,3.109-9.109,4.586c-5.73,2.769-11.994,4.395-17.571,7.457C176.185,368.393,176.69,369.256,177.255,368.945
				L177.255,368.945z"/>
		</g>
		<g>
			<path d="M177.297,372.228c11.457-4.818,23.955-7.289,34.02-14.965c0.505-0.386,0.008-1.255-0.505-0.863
				c-9.995,7.621-22.404,10.079-33.781,14.863C176.446,371.51,176.703,372.478,177.297,372.228L177.297,372.228z"/>
		</g>
		<g>
			<path d="M177.061,376.371c2.65,0.014,5.442-1.151,7.929-1.962c3.511-1.146,7.001-2.41,10.438-3.762
				c3.221-1.267,6.363-2.723,9.421-4.342c2.146-1.136,4.5-2.102,6.485-3.499c0.523-0.368,0.024-1.235-0.505-0.863
				c-1.759,1.237-3.832,2.043-5.732,3.052c-3.253,1.727-6.514,3.31-9.936,4.689c-3.145,1.268-6.365,2.352-9.566,3.466
				c-2.588,0.9-5.763,2.235-8.535,2.222C176.415,375.368,176.416,376.368,177.061,376.371L177.061,376.371z"/>
		</g>
		<g>
			<path d="M177.446,380.121c5.744-1.957,11.64-3.561,17.418-5.449c5.728-1.871,11.746-4.23,16.968-7.254
				c0.558-0.323,0.054-1.188-0.505-0.863c-5.186,3.003-11.07,5.231-16.729,7.153c-5.763,1.956-11.668,3.489-17.417,5.448
				C176.574,379.363,176.834,380.329,177.446,380.121L177.446,380.121z"/>
		</g>
		<g>
			<path d="M182.579,381.857c5.384-1.347,10.667-2.896,15.96-4.559c2.612-0.82,5.2-1.7,7.74-2.721
				c1.933-0.776,4.1-1.404,5.794-2.646c0.514-0.377,0.016-1.245-0.505-0.863c-1.81,1.326-4.323,2.05-6.402,2.886
				c-2.535,1.019-5.152,1.834-7.757,2.651c-5.004,1.571-10.006,3.015-15.096,4.287C181.688,381.049,181.954,382.014,182.579,381.857
				L182.579,381.857z"/>
		</g>
		<g>
			<path d="M192.454,383.107c4.014-1.628,8.159-2.959,12.375-3.957c1.791-0.425,3.491-1.16,5.251-1.685
				c0.74-0.221,1.666-0.406,2.22-0.987c0.444-0.467-0.262-1.175-0.707-0.707c-0.704,0.739-2.588,0.973-3.529,1.308
				c-1.736,0.618-3.491,1.082-5.271,1.549c-3.605,0.946-7.15,2.115-10.604,3.515C191.599,382.382,191.856,383.35,192.454,383.107
				L192.454,383.107z"/>
		</g>
		<g>
			<path d="M199.329,384.107c2.729-0.634,5.431-1.36,8.125-2.125c1.53-0.434,3.2-0.544,4.642-1.261
				c0.397-0.197,0.278-0.806-0.12-0.914c-0.049-0.013-0.098-0.026-0.147-0.04c-0.623-0.169-0.887,0.796-0.266,0.965
				c0.049,0.013,0.098,0.026,0.147,0.04c-0.04-0.305-0.079-0.609-0.12-0.914c-1.605,0.799-3.573,0.924-5.282,1.409
				c-2.401,0.682-4.815,1.31-7.246,1.875C198.436,383.289,198.702,384.253,199.329,384.107L199.329,384.107z"/>
		</g>
		<g>
			<path d="M176.811,375.022c1.852,1.723,3.939,3.118,6.021,4.544c1.215,0.832,2.494,1.533,3.801,2.209
				c0.694,0.359,2.004,0.644,2.489,1.248c0.404,0.503,1.106-0.209,0.707-0.707c-0.294-0.365-0.73-0.561-1.158-0.737
				c-1.36-0.559-2.639-1.231-3.914-1.96c-2.548-1.454-5.097-3.312-7.239-5.304C177.047,373.877,176.338,374.582,176.811,375.022
				L176.811,375.022z"/>
		</g>
		<g>
			<path d="M176.784,370.711c7.356,6.146,15.494,10.766,23.79,15.461c0.253,0.143,0.688,0.031,0.734-0.299
				c0.004-0.031,0.009-0.063,0.013-0.094c0.089-0.63-0.874-0.902-0.964-0.266c-0.004,0.031-0.009,0.063-0.014,0.094
				c0.245-0.1,0.49-0.199,0.735-0.299c-8.218-4.651-16.293-9.209-23.588-15.305C177,369.594,176.289,370.297,176.784,370.711
				L176.784,370.711z"/>
		</g>
		<g>
			<path d="M176.289,365.09c4.742,3.85,9.92,7.166,14.998,10.55c2.461,1.64,4.983,3.183,7.552,4.646
				c2.42,1.38,4.951,2.984,7.595,3.884c0.612,0.208,0.872-0.758,0.266-0.965c-2.555-0.868-5.005-2.469-7.356-3.782
				c-2.581-1.442-5.083-3.022-7.552-4.647c-5.019-3.303-10.127-6.603-14.796-10.393C176.5,363.98,175.788,364.684,176.289,365.09
				L176.289,365.09z"/>
		</g>
		<g>
			<path d="M176.854,361.246c5.187,4.522,10.784,8.5,16.711,11.994c3.062,1.805,6.226,3.432,9.439,4.947
				c1.355,0.64,2.73,1.31,4.135,1.835c1.13,0.423,3.392,0.624,4.051,1.712c0.333,0.551,1.198,0.049,0.863-0.504
				c-0.809-1.338-2.955-1.614-4.316-2.048c-3.643-1.161-7.208-3.248-10.561-5.055c-7.018-3.779-13.609-8.352-19.615-13.589
				C177.078,360.117,176.368,360.821,176.854,361.246L176.854,361.246z"/>
		</g>
		<g>
			<path d="M176.366,357.25c1.6,2.02,4.036,3.093,6.258,4.279c3.139,1.677,6.093,3.682,9.255,5.334
				c6.188,3.233,12.601,6.559,19.253,8.724c0.044-0.328,0.088-0.655,0.133-0.982c-0.087,0-0.175,0-0.263,0c-0.645,0-0.645,1,0,1
				c0.087,0,0.175,0,0.263,0c0.579,0,0.662-0.81,0.133-0.982c-6.583-2.143-12.857-5.484-19.015-8.622
				c-2.992-1.525-5.813-3.316-8.698-5.025c-2.291-1.356-4.91-2.282-6.612-4.432C176.673,356.037,175.97,356.75,176.366,357.25
				L176.366,357.25z"/>
		</g>
		<g>
			<path d="M176.212,351.967c5.053,3.947,10.939,7.054,16.489,10.246c2.929,1.685,5.985,3.092,9.091,4.414
				c3.065,1.305,5.974,3.105,9.151,4.118c0.044-0.328,0.088-0.655,0.133-0.982c0.062,0.042,0.123,0.084,0.185,0.126
				c-0.374-0.519-1.241-0.02-0.863,0.504c0.199,0.276,0.341,0.34,0.679,0.37c0.584,0.053,0.648-0.818,0.133-0.982
				c-2.861-0.911-5.426-2.578-8.201-3.72c-3.069-1.265-6.079-2.651-8.988-4.252c-5.763-3.172-11.912-6.496-17.101-10.549
				C176.417,350.868,175.704,351.57,176.212,351.967L176.212,351.967z"/>
		</g>
		<g>
			<path d="M176.819,347.182c5.559,3.191,10.992,6.598,16.578,9.742c5.598,3.151,11.455,5.505,17.297,8.133
				c0.582,0.262,1.049-0.5,0.505-0.863c-0.125-0.083-0.25-0.167-0.375-0.25c-0.538-0.359-1.038,0.508-0.505,0.863
				c0.125,0.083,0.25,0.167,0.375,0.25c0.168-0.288,0.336-0.575,0.505-0.863c-5.843-2.629-11.685-5.012-17.297-8.133
				c-5.602-3.116-11.02-6.551-16.578-9.742C176.764,345.997,176.26,346.86,176.819,347.182L176.819,347.182z"/>
		</g>
		<g>
			<path d="M180.454,344.449c2.265,1.739,4.828,3.01,7.355,4.318c2.852,1.476,5.55,3.229,8.376,4.752
				c4.734,2.549,9.993,4.271,14.624,6.957c0.559,0.324,1.062-0.54,0.505-0.863c-4.626-2.684-9.876-4.451-14.624-6.958
				c-2.839-1.498-5.547-3.232-8.376-4.752c-2.515-1.35-5.081-2.571-7.355-4.317C180.447,343.193,179.95,344.063,180.454,344.449
				L180.454,344.449z"/>
		</g>
		<g>
			<path d="M188.435,344.04c3.508,2.343,7.155,4.442,10.86,6.455c3.785,2.057,7.775,3.557,11.595,5.516
				c0.575,0.295,1.044-0.509,0.505-0.863c-0.123-0.081-0.246-0.161-0.368-0.242c-0.541-0.355-1.041,0.511-0.505,0.863
				c0.122,0.081,0.246,0.161,0.368,0.242c0.169-0.288,0.337-0.575,0.505-0.863c-3.549-1.82-7.277-3.198-10.8-5.087
				c-3.98-2.134-7.898-4.374-11.655-6.884C188.402,342.817,187.902,343.684,188.435,344.04L188.435,344.04z"/>
		</g>
		<g>
			<path d="M195.694,343.807c2.65,1.695,5.411,3.191,8.179,4.682c2.336,1.258,5.051,1.861,7.196,3.443
				c0.52,0.384,1.018-0.485,0.505-0.863c-1.905-1.405-4.255-2.004-6.375-3c-3.096-1.455-6.122-3.283-9-5.125
				C195.654,342.595,195.153,343.461,195.694,343.807L195.694,343.807z"/>
		</g>
		<g>
			<path d="M203.319,344.057c2.237,1.411,4.663,2.463,7.12,3.426c0.601,0.235,0.859-0.732,0.266-0.965
				c-2.378-0.932-4.715-1.959-6.88-3.324C203.276,342.848,202.775,343.714,203.319,344.057L203.319,344.057z"/>
		</g>
	</g>
	<g>
		<path d="M119.839,393.535c3.736,2.165,35.668,10.048,40.001,11.4c4.333,1.352,3.666,2.317,10.666,1.352
			c7-0.965,50.334-6.375,53.667-6.569c3.333-0.192,4.832-3.282-1.501-4.442c-6.333-1.161-48.165-5.99-52.082-6.764
			c-3.917-0.773-10.082,0.002-19.583,0.967c-9.501,0.966-26.168,1.933-28.168,2.125
			C120.839,391.796,117.505,392.182,119.839,393.535z"/>
		<path style="fill:#E4F1F5;" d="M224.84,389.285c0,2.125,0.167,6.956-0.333,7.342c-0.5,0.386-53.666,5.602-56.333,6.762
			c-2.667,1.159-5-0.192-8.667-1.545c-3.667-1.353-34.834-9.081-36.167-9.66c-1.333-0.58-1.833-7.344-0.833-7.729
			s46.5-1.933,46.5-1.933L224.84,389.285z"/>
		<path d="M120.173,384.84c3.736,2.166,35.668,10.049,40.001,11.401c4.333,1.352,3.666,2.317,10.666,1.352
			s50.334-6.375,53.667-6.569c3.333-0.193,4.832-3.283-1.501-4.442c-6.333-1.161-48.165-5.991-52.082-6.765
			c-3.917-0.773-10.082,0.002-19.583,0.967c-9.501,0.967-26.168,1.934-28.168,2.125C121.173,383.102,117.839,383.487,120.173,384.84
			z"/>
		<g>
			<path d="M127.443,385.984c-4.585-4.007-9.17,1.485-8.932,6.21c0.11,2.186,1.14,4.468,3.151,5.482
				c2.39,1.204,4.859-0.606,6.405-2.29c0.436-0.474-0.27-1.183-0.707-0.707c-1.439,1.567-3.415,3.029-5.579,1.939
				c-1.541-0.776-2.1-2.862-2.271-4.424c-0.416-3.823,3.394-8.852,7.225-5.503C127.22,387.114,127.93,386.409,127.443,385.984
				L127.443,385.984z"/>
		</g>
		<g>
			<path d="M133.947,387.364c-0.764-1.829-2.433-2.179-4.249-1.481c-2.194,0.842-2.926,3.907-3.046,5.959
				c-0.276,4.717,4.54,10.927,8.917,6.152c0.435-0.475-0.27-1.184-0.707-0.707c-3.331,3.634-6.342-0.445-7.066-3.662
				c-0.309-1.369-0.132-2.791,0.276-4.111c0.514-1.657,3.647-4.909,4.911-1.884C133.227,388.216,134.195,387.959,133.947,387.364
				L133.947,387.364z"/>
		</g>
		<g>
			<path d="M142.771,389.999c-1.046-1.995-2.662-3.092-4.86-2.133c-2.224,0.971-3.299,3.897-3.611,6.098
				c-0.309,2.184,0.126,4.521,1.657,6.164c1.992,2.139,4.251,0.747,5.986-0.829c0.479-0.435-0.231-1.14-0.707-0.707
				c-1.86,1.69-3.843,2.228-5.287-0.114c-0.84-1.363-0.832-3.205-0.616-4.732c0.458-3.232,4.163-7.84,6.575-3.242
				C142.207,391.074,143.071,390.569,142.771,389.999L142.771,389.999z"/>
		</g>
		<g>
			<path d="M149.771,392.317c-1.035-1.552-2.802-2.721-4.701-1.841c-2.259,1.046-3.108,3.324-3.23,5.675
				c-0.116,2.256,0.557,4.67,2.014,6.407c1.901,2.266,4.254,0.837,6.112-0.572c0.507-0.384,0.009-1.253-0.505-0.863
				c-1.491,1.131-3.183,2.407-4.9,0.729c-1.179-1.153-1.554-3.115-1.698-4.683c-0.131-1.417,0.097-2.805,0.745-4.071
				c1.193-2.333,3.887-2.393,5.3-0.276C149.264,393.355,150.131,392.855,149.771,392.317L149.771,392.317z"/>
		</g>
		<g>
			<path d="M158.146,393.766c-1.123-1.851-2.896-2.005-4.77-1.167c-2.075,0.929-2.999,3.122-3.205,5.248
				c-0.204,2.097-0.158,5.03,1.422,6.668c1.95,2.023,4.217,0.743,5.849-1.013c0.438-0.472-0.267-1.181-0.707-0.707
				c-3.901,4.197-5.705-0.47-5.64-3.97c0.022-1.203,0.257-2.46,0.8-3.54c0.967-1.921,4.042-3.229,5.387-1.016
				C157.617,394.82,158.482,394.318,158.146,393.766L158.146,393.766z"/>
		</g>
		<g>
			<path d="M163.967,395.182c-4.144-2.374-7.822,2.066-8.253,5.938c-0.462,4.155,2.597,8.244,6.753,5.794
				c0.555-0.327,0.052-1.191-0.505-0.863c-3.804,2.243-5.248-1.797-5.248-4.931c0.001-3.22,3.544-6.909,6.748-5.074
				C164.023,396.366,164.526,395.502,163.967,395.182L163.967,395.182z"/>
		</g>
	</g>
</g>
</svg>
